<?xml version="1.0" encoding="UTF-8"?>
<!-- Created with Inkscape (http://www.inkscape.org/) -->
<svg version="1.1" viewBox="0 40 210 220" xmlns="http://www.w3.org/2000/svg" xmlns:cc="http://creativecommons.org/ns#" xmlns:dc="http://purl.org/dc/elements/1.1/" xmlns:rdf="http://www.w3.org/1999/02/22-rdf-syntax-ns#">
 <metadata>
  <rdf:RDF>
   <cc:Work rdf:about="">
    <dc:format>image/svg+xml</dc:format>
    <dc:type rdf:resource="http://purl.org/dc/dcmitype/StillImage"/>
    <dc:title/>
   </cc:Work>
  </rdf:RDF>
 </metadata>
 <g transform="matrix(1.5214 0 0 1.5214 -66.871 -79.297)" fill-opacity=".88626" stroke="#515151">
  <g transform="matrix(.45968 0 0 .45968 19.729 75.547)">
   <path transform="scale(.26458)" d="m696.09 67.832a47.656 47.656 0 0 0 -47.656 47.656 47.656 47.656 0 0 0 47.656 47.656 47.656 47.656 0 0 0 47.656 -47.656 47.656 47.656 0 0 0 -47.656 -47.656zm0 28.125a17.969 17.969 0 0 1 17.969 17.969 17.969 17.969 0 0 1 -17.969 17.969 17.969 17.969 0 0 1 -17.969 -17.969 17.969 17.969 0 0 1 17.969 -17.969z" fill="#140d0d" stroke-width=".75591"/>
   <path d="m184.42 22.083a7.4291 7.4291 0 0 0 -7.429 7.429 7.4291 7.4291 0 0 0 7.429 7.429 7.4291 7.4291 0 0 0 7.429 -7.429 7.4291 7.4291 0 0 0 -7.429 -7.429zm-0.24546 3.3052a4.3305 4.3305 0 0 1 1.1596 0.14779 4.3305 4.3305 0 0 1 3.0618 5.3036 4.3305 4.3305 0 0 1 -5.3036 3.0623 4.3305 4.3305 0 0 1 -3.0618 -5.3041 4.3305 4.3305 0 0 1 4.1439 -3.2096z" fill="#978a8a" stroke-width=".22463"/>
  </g>
  <g transform="matrix(.45968 0 0 .45968 8.5659 96.467)">
   <path transform="scale(.26458)" d="m696.09 67.832a47.656 47.656 0 0 0 -47.656 47.656 47.656 47.656 0 0 0 47.656 47.656 47.656 47.656 0 0 0 47.656 -47.656 47.656 47.656 0 0 0 -47.656 -47.656zm0 28.125a17.969 17.969 0 0 1 17.969 17.969 17.969 17.969 0 0 1 -17.969 17.969 17.969 17.969 0 0 1 -17.969 -17.969 17.969 17.969 0 0 1 17.969 -17.969z" fill="#140d0d" stroke-width=".75591"/>
   <path d="m184.42 22.083a7.4291 7.4291 0 0 0 -7.429 7.429 7.4291 7.4291 0 0 0 7.429 7.429 7.4291 7.4291 0 0 0 7.429 -7.429 7.4291 7.4291 0 0 0 -7.429 -7.429zm-0.24546 3.3052a4.3305 4.3305 0 0 1 1.1596 0.14779 4.3305 4.3305 0 0 1 3.0618 5.3036 4.3305 4.3305 0 0 1 -5.3036 3.0623 4.3305 4.3305 0 0 1 -3.0618 -5.3041 4.3305 4.3305 0 0 1 4.1439 -3.2096z" fill="#978a8a" stroke-width=".22463"/>
  </g>
  <g transform="matrix(.45968 0 0 .45968 -7.1471 113.86)">
   <path transform="scale(.26458)" d="m696.09 67.832a47.656 47.656 0 0 0 -47.656 47.656 47.656 47.656 0 0 0 47.656 47.656 47.656 47.656 0 0 0 47.656 -47.656 47.656 47.656 0 0 0 -47.656 -47.656zm0 28.125a17.969 17.969 0 0 1 17.969 17.969 17.969 17.969 0 0 1 -17.969 17.969 17.969 17.969 0 0 1 -17.969 -17.969 17.969 17.969 0 0 1 17.969 -17.969z" fill="#140d0d" stroke-width=".75591"/>
   <path d="m184.42 22.083a7.4291 7.4291 0 0 0 -7.429 7.429 7.4291 7.4291 0 0 0 7.429 7.429 7.4291 7.4291 0 0 0 7.429 -7.429 7.4291 7.4291 0 0 0 -7.429 -7.429zm-0.24546 3.3052a4.3305 4.3305 0 0 1 1.1596 0.14779 4.3305 4.3305 0 0 1 3.0618 5.3036 4.3305 4.3305 0 0 1 -5.3036 3.0623 4.3305 4.3305 0 0 1 -3.0618 -5.3041 4.3305 4.3305 0 0 1 4.1439 -3.2096z" fill="#978a8a" stroke-width=".22463"/>
  </g>
  <g transform="matrix(.45968 0 0 .45968 22.071 136.39)">
   <path transform="scale(.26458)" d="m696.09 67.832a47.656 47.656 0 0 0 -47.656 47.656 47.656 47.656 0 0 0 47.656 47.656 47.656 47.656 0 0 0 47.656 -47.656 47.656 47.656 0 0 0 -47.656 -47.656zm0 28.125a17.969 17.969 0 0 1 17.969 17.969 17.969 17.969 0 0 1 -17.969 17.969 17.969 17.969 0 0 1 -17.969 -17.969 17.969 17.969 0 0 1 17.969 -17.969z" fill="#140d0d" stroke-width=".75591"/>
   <path d="m184.42 22.083a7.4291 7.4291 0 0 0 -7.429 7.429 7.4291 7.4291 0 0 0 7.429 7.429 7.4291 7.4291 0 0 0 7.429 -7.429 7.4291 7.4291 0 0 0 -7.429 -7.429zm-0.24546 3.3052a4.3305 4.3305 0 0 1 1.1596 0.14779 4.3305 4.3305 0 0 1 3.0618 5.3036 4.3305 4.3305 0 0 1 -5.3036 3.0623 4.3305 4.3305 0 0 1 -3.0618 -5.3041 4.3305 4.3305 0 0 1 4.1439 -3.2096z" fill="#978a8a" stroke-width=".22463"/>
  </g>
  <g transform="matrix(.45968 0 0 .45968 9.5483 155.61)">
   <path transform="scale(.26458)" d="m696.09 67.832a47.656 47.656 0 0 0 -47.656 47.656 47.656 47.656 0 0 0 47.656 47.656 47.656 47.656 0 0 0 47.656 -47.656 47.656 47.656 0 0 0 -47.656 -47.656zm0 28.125a17.969 17.969 0 0 1 17.969 17.969 17.969 17.969 0 0 1 -17.969 17.969 17.969 17.969 0 0 1 -17.969 -17.969 17.969 17.969 0 0 1 17.969 -17.969z" fill="#140d0d" stroke-width=".75591"/>
   <path d="m184.42 22.083a7.4291 7.4291 0 0 0 -7.429 7.429 7.4291 7.4291 0 0 0 7.429 7.429 7.4291 7.4291 0 0 0 7.429 -7.429 7.4291 7.4291 0 0 0 -7.429 -7.429zm-0.24546 3.3052a4.3305 4.3305 0 0 1 1.1596 0.14779 4.3305 4.3305 0 0 1 3.0618 5.3036 4.3305 4.3305 0 0 1 -5.3036 3.0623 4.3305 4.3305 0 0 1 -3.0618 -5.3041 4.3305 4.3305 0 0 1 4.1439 -3.2096z" fill="#978a8a" stroke-width=".22463"/>
  </g>
  <g transform="matrix(.45968 0 0 .45968 -3.055 175.34)">
   <path transform="scale(.26458)" d="m696.09 67.832a47.656 47.656 0 0 0 -47.656 47.656 47.656 47.656 0 0 0 47.656 47.656 47.656 47.656 0 0 0 47.656 -47.656 47.656 47.656 0 0 0 -47.656 -47.656zm0 28.125a17.969 17.969 0 0 1 17.969 17.969 17.969 17.969 0 0 1 -17.969 17.969 17.969 17.969 0 0 1 -17.969 -17.969 17.969 17.969 0 0 1 17.969 -17.969z" fill="#140d0d" stroke-width=".75591"/>
   <path d="m184.42 22.083a7.4291 7.4291 0 0 0 -7.429 7.429 7.4291 7.4291 0 0 0 7.429 7.429 7.4291 7.4291 0 0 0 7.429 -7.429 7.4291 7.4291 0 0 0 -7.429 -7.429zm-0.24546 3.3052a4.3305 4.3305 0 0 1 1.1596 0.14779 4.3305 4.3305 0 0 1 3.0618 5.3036 4.3305 4.3305 0 0 1 -5.3036 3.0623 4.3305 4.3305 0 0 1 -3.0618 -5.3041 4.3305 4.3305 0 0 1 4.1439 -3.2096z" fill="#978a8a" stroke-width=".22463"/>
  </g>
  <g transform="matrix(.45968 0 0 .45968 22.7 197.25)">
   <path transform="scale(.26458)" d="m696.09 67.832a47.656 47.656 0 0 0 -47.656 47.656 47.656 47.656 0 0 0 47.656 47.656 47.656 47.656 0 0 0 47.656 -47.656 47.656 47.656 0 0 0 -47.656 -47.656zm0 28.125a17.969 17.969 0 0 1 17.969 17.969 17.969 17.969 0 0 1 -17.969 17.969 17.969 17.969 0 0 1 -17.969 -17.969 17.969 17.969 0 0 1 17.969 -17.969z" fill="#140d0d" stroke-width=".75591"/>
   <path d="m184.42 22.083a7.4291 7.4291 0 0 0 -7.429 7.429 7.4291 7.4291 0 0 0 7.429 7.429 7.4291 7.4291 0 0 0 7.429 -7.429 7.4291 7.4291 0 0 0 -7.429 -7.429zm-0.24546 3.3052a4.3305 4.3305 0 0 1 1.1596 0.14779 4.3305 4.3305 0 0 1 3.0618 5.3036 4.3305 4.3305 0 0 1 -5.3036 3.0623 4.3305 4.3305 0 0 1 -3.0618 -5.3041 4.3305 4.3305 0 0 1 4.1439 -3.2096z" fill="#978a8a" stroke-width=".22463"/>
  </g>
  <g transform="matrix(.45968 0 0 .45968 48.992 172.36)">
   <path transform="scale(.26458)" d="m696.09 67.832a47.656 47.656 0 0 0 -47.656 47.656 47.656 47.656 0 0 0 47.656 47.656 47.656 47.656 0 0 0 47.656 -47.656 47.656 47.656 0 0 0 -47.656 -47.656zm0 28.125a17.969 17.969 0 0 1 17.969 17.969 17.969 17.969 0 0 1 -17.969 17.969 17.969 17.969 0 0 1 -17.969 -17.969 17.969 17.969 0 0 1 17.969 -17.969z" fill="#140d0d" stroke-width=".75591"/>
   <path d="m184.42 22.083a7.4291 7.4291 0 0 0 -7.429 7.429 7.4291 7.4291 0 0 0 7.429 7.429 7.4291 7.4291 0 0 0 7.429 -7.429 7.4291 7.4291 0 0 0 -7.429 -7.429zm-0.24546 3.3052a4.3305 4.3305 0 0 1 1.1596 0.14779 4.3305 4.3305 0 0 1 3.0618 5.3036 4.3305 4.3305 0 0 1 -5.3036 3.0623 4.3305 4.3305 0 0 1 -3.0618 -5.3041 4.3305 4.3305 0 0 1 4.1439 -3.2096z" fill="#978a8a" stroke-width=".22463"/>
  </g>
  <g transform="matrix(.45968 0 0 .45968 84.062 167.42)">
   <path transform="scale(.26458)" d="m696.09 67.832a47.656 47.656 0 0 0 -47.656 47.656 47.656 47.656 0 0 0 47.656 47.656 47.656 47.656 0 0 0 47.656 -47.656 47.656 47.656 0 0 0 -47.656 -47.656zm0 28.125a17.969 17.969 0 0 1 17.969 17.969 17.969 17.969 0 0 1 -17.969 17.969 17.969 17.969 0 0 1 -17.969 -17.969 17.969 17.969 0 0 1 17.969 -17.969z" fill="#140d0d" stroke-width=".75591"/>
   <path d="m184.42 22.083a7.4291 7.4291 0 0 0 -7.429 7.429 7.4291 7.4291 0 0 0 7.429 7.429 7.4291 7.4291 0 0 0 7.429 -7.429 7.4291 7.4291 0 0 0 -7.429 -7.429zm-0.24546 3.3052a4.3305 4.3305 0 0 1 1.1596 0.14779 4.3305 4.3305 0 0 1 3.0618 5.3036 4.3305 4.3305 0 0 1 -5.3036 3.0623 4.3305 4.3305 0 0 1 -3.0618 -5.3041 4.3305 4.3305 0 0 1 4.1439 -3.2096z" fill="#978a8a" stroke-width=".22463"/>
  </g>
  <g transform="matrix(.45968 0 0 .45968 58.856 135.64)">
   <path transform="scale(.26458)" d="m696.09 67.832a47.656 47.656 0 0 0 -47.656 47.656 47.656 47.656 0 0 0 47.656 47.656 47.656 47.656 0 0 0 47.656 -47.656 47.656 47.656 0 0 0 -47.656 -47.656zm0 28.125a17.969 17.969 0 0 1 17.969 17.969 17.969 17.969 0 0 1 -17.969 17.969 17.969 17.969 0 0 1 -17.969 -17.969 17.969 17.969 0 0 1 17.969 -17.969z" fill="#140d0d" stroke-width=".75591"/>
   <path d="m184.42 22.083a7.4291 7.4291 0 0 0 -7.429 7.429 7.4291 7.4291 0 0 0 7.429 7.429 7.4291 7.4291 0 0 0 7.429 -7.429 7.4291 7.4291 0 0 0 -7.429 -7.429zm-0.24546 3.3052a4.3305 4.3305 0 0 1 1.1596 0.14779 4.3305 4.3305 0 0 1 3.0618 5.3036 4.3305 4.3305 0 0 1 -5.3036 3.0623 4.3305 4.3305 0 0 1 -3.0618 -5.3041 4.3305 4.3305 0 0 1 4.1439 -3.2096z" fill="#978a8a" stroke-width=".22463"/>
  </g>
  <g transform="matrix(.45968 0 0 .45968 63.787 102.22)">
   <path transform="scale(.26458)" d="m696.09 67.832a47.656 47.656 0 0 0 -47.656 47.656 47.656 47.656 0 0 0 47.656 47.656 47.656 47.656 0 0 0 47.656 -47.656 47.656 47.656 0 0 0 -47.656 -47.656zm0 28.125a17.969 17.969 0 0 1 17.969 17.969 17.969 17.969 0 0 1 -17.969 17.969 17.969 17.969 0 0 1 -17.969 -17.969 17.969 17.969 0 0 1 17.969 -17.969z" fill="#140d0d" stroke-width=".75591"/>
   <path d="m184.42 22.083a7.4291 7.4291 0 0 0 -7.429 7.429 7.4291 7.4291 0 0 0 7.429 7.429 7.4291 7.4291 0 0 0 7.429 -7.429 7.4291 7.4291 0 0 0 -7.429 -7.429zm-0.24546 3.3052a4.3305 4.3305 0 0 1 1.1596 0.14779 4.3305 4.3305 0 0 1 3.0618 5.3036 4.3305 4.3305 0 0 1 -5.3036 3.0623 4.3305 4.3305 0 0 1 -3.0618 -5.3041 4.3305 4.3305 0 0 1 4.1439 -3.2096z" fill="#978a8a" stroke-width=".22463"/>
  </g>
  <g transform="matrix(.45968 0 0 .45968 -26.103 140)">
   <path transform="scale(.26458)" d="m696.09 67.832a47.656 47.656 0 0 0 -47.656 47.656 47.656 47.656 0 0 0 47.656 47.656 47.656 47.656 0 0 0 47.656 -47.656 47.656 47.656 0 0 0 -47.656 -47.656zm0 28.125a17.969 17.969 0 0 1 17.969 17.969 17.969 17.969 0 0 1 -17.969 17.969 17.969 17.969 0 0 1 -17.969 -17.969 17.969 17.969 0 0 1 17.969 -17.969z" fill="#140d0d" stroke-width=".75591"/>
   <path d="m184.42 22.083a7.4291 7.4291 0 0 0 -7.429 7.429 7.4291 7.4291 0 0 0 7.429 7.429 7.4291 7.4291 0 0 0 7.429 -7.429 7.4291 7.4291 0 0 0 -7.429 -7.429zm-0.24546 3.3052a4.3305 4.3305 0 0 1 1.1596 0.14779 4.3305 4.3305 0 0 1 3.0618 5.3036 4.3305 4.3305 0 0 1 -5.3036 3.0623 4.3305 4.3305 0 0 1 -3.0618 -5.3041 4.3305 4.3305 0 0 1 4.1439 -3.2096z" fill="#978a8a" stroke-width=".22463"/>
  </g>
  <g transform="matrix(.45968 0 0 .45968 -29.298 177.93)">
   <path transform="scale(.26458)" d="m696.09 67.832a47.656 47.656 0 0 0 -47.656 47.656 47.656 47.656 0 0 0 47.656 47.656 47.656 47.656 0 0 0 47.656 -47.656 47.656 47.656 0 0 0 -47.656 -47.656zm0 28.125a17.969 17.969 0 0 1 17.969 17.969 17.969 17.969 0 0 1 -17.969 17.969 17.969 17.969 0 0 1 -17.969 -17.969 17.969 17.969 0 0 1 17.969 -17.969z" fill="#140d0d" stroke-width=".75591"/>
   <path d="m184.42 22.083a7.4291 7.4291 0 0 0 -7.429 7.429 7.4291 7.4291 0 0 0 7.429 7.429 7.4291 7.4291 0 0 0 7.429 -7.429 7.4291 7.4291 0 0 0 -7.429 -7.429zm-0.24546 3.3052a4.3305 4.3305 0 0 1 1.1596 0.14779 4.3305 4.3305 0 0 1 3.0618 5.3036 4.3305 4.3305 0 0 1 -5.3036 3.0623 4.3305 4.3305 0 0 1 -3.0618 -5.3041 4.3305 4.3305 0 0 1 4.1439 -3.2096z" fill="#978a8a" stroke-width=".22463"/>
  </g>
  <g transform="matrix(.45968 0 0 .45968 89.542 138.93)">
   <path transform="scale(.26458)" d="m696.09 67.832a47.656 47.656 0 0 0 -47.656 47.656 47.656 47.656 0 0 0 47.656 47.656 47.656 47.656 0 0 0 47.656 -47.656 47.656 47.656 0 0 0 -47.656 -47.656zm0 28.125a17.969 17.969 0 0 1 17.969 17.969 17.969 17.969 0 0 1 -17.969 17.969 17.969 17.969 0 0 1 -17.969 -17.969 17.969 17.969 0 0 1 17.969 -17.969z" fill="#140d0d" stroke-width=".75591"/>
   <path d="m184.42 22.083a7.4291 7.4291 0 0 0 -7.429 7.429 7.4291 7.4291 0 0 0 7.429 7.429 7.4291 7.4291 0 0 0 7.429 -7.429 7.4291 7.4291 0 0 0 -7.429 -7.429zm-0.24546 3.3052a4.3305 4.3305 0 0 1 1.1596 0.14779 4.3305 4.3305 0 0 1 3.0618 5.3036 4.3305 4.3305 0 0 1 -5.3036 3.0623 4.3305 4.3305 0 0 1 -3.0618 -5.3041 4.3305 4.3305 0 0 1 4.1439 -3.2096z" fill="#978a8a" stroke-width=".22463"/>
  </g>
  <g transform="matrix(.45968 0 0 .45968 -33.45 99.613)">
   <path transform="scale(.26458)" d="m696.09 67.832a47.656 47.656 0 0 0 -47.656 47.656 47.656 47.656 0 0 0 47.656 47.656 47.656 47.656 0 0 0 47.656 -47.656 47.656 47.656 0 0 0 -47.656 -47.656zm0 28.125a17.969 17.969 0 0 1 17.969 17.969 17.969 17.969 0 0 1 -17.969 17.969 17.969 17.969 0 0 1 -17.969 -17.969 17.969 17.969 0 0 1 17.969 -17.969z" fill="#140d0d" stroke-width=".75591"/>
   <path d="m184.42 22.083a7.4291 7.4291 0 0 0 -7.429 7.429 7.4291 7.4291 0 0 0 7.429 7.429 7.4291 7.4291 0 0 0 7.429 -7.429 7.4291 7.4291 0 0 0 -7.429 -7.429zm-0.24546 3.3052a4.3305 4.3305 0 0 1 1.1596 0.14779 4.3305 4.3305 0 0 1 3.0618 5.3036 4.3305 4.3305 0 0 1 -5.3036 3.0623 4.3305 4.3305 0 0 1 -3.0618 -5.3041 4.3305 4.3305 0 0 1 4.1439 -3.2096z" fill="#978a8a" stroke-width=".22463"/>
  </g>
 </g>
</svg>
