<?xml version="1.0" encoding="UTF-8"?>
<!-- Created with Inkscape (http://www.inkscape.org/) -->
<svg version="1.1" viewBox="0 50 210 200" xmlns="http://www.w3.org/2000/svg" xmlns:cc="http://creativecommons.org/ns#" xmlns:dc="http://purl.org/dc/elements/1.1/" xmlns:rdf="http://www.w3.org/1999/02/22-rdf-syntax-ns#">
 <metadata>
  <rdf:RDF>
   <cc:Work rdf:about="">
    <dc:format>image/svg+xml</dc:format>
    <dc:type rdf:resource="http://purl.org/dc/dcmitype/StillImage"/>
    <dc:title/>
   </cc:Work>
  </rdf:RDF>
 </metadata>
 <g transform="matrix(1.5235 0 0 1.5235 -56.231 -83.415)">
  <g transform="matrix(.089366 0 0 .089366 50.436 114.11)">
   <ellipse cx="108.1" cy="151.86" rx="95.25" ry="94.494" fill="#ce4410"/>
   <g fill="#fff3ee">
    <ellipse cx="50.649" cy="120.11" rx="10.583" ry="6.8036"/>
    <ellipse cx="116.42" cy="166.22" rx="6.8036" ry="11.339"/>
    <ellipse cx="164.04" cy="153.37" rx="6.8036" ry="11.339"/>
    <ellipse cx="94.494" cy="203.26" rx="10.583" ry="6.8036"/>
    <ellipse cx="151.19" cy="112.55" rx="10.583" ry="6.8036"/>
    <ellipse cx="53.673" cy="176.05" rx="6.8036" ry="11.339"/>
    <ellipse cx="99.03" cy="83.065" rx="6.8036" ry="11.339"/>
    <ellipse cx="86.935" cy="135.98" rx="10.583" ry="6.8036"/>
    <ellipse cx="146.65" cy="205.53" rx="10.583" ry="6.8036"/>
   </g>
  </g>
  <g transform="matrix(.089366 0 0 .089366 70.163 153.56)">
   <ellipse cx="108.1" cy="151.86" rx="95.25" ry="94.494" fill="#ce4410"/>
   <g fill="#fff3ee">
    <ellipse cx="50.649" cy="120.11" rx="10.583" ry="6.8036"/>
    <ellipse cx="116.42" cy="166.22" rx="6.8036" ry="11.339"/>
    <ellipse cx="164.04" cy="153.37" rx="6.8036" ry="11.339"/>
    <ellipse cx="94.494" cy="203.26" rx="10.583" ry="6.8036"/>
    <ellipse cx="151.19" cy="112.55" rx="10.583" ry="6.8036"/>
    <ellipse cx="53.673" cy="176.05" rx="6.8036" ry="11.339"/>
    <ellipse cx="99.03" cy="83.065" rx="6.8036" ry="11.339"/>
    <ellipse cx="86.935" cy="135.98" rx="10.583" ry="6.8036"/>
    <ellipse cx="146.65" cy="205.53" rx="10.583" ry="6.8036"/>
   </g>
  </g>
  <g transform="matrix(.089366 0 0 .089366 37.833 151.92)">
   <ellipse cx="108.1" cy="151.86" rx="95.25" ry="94.494" fill="#ce4410"/>
   <g fill="#fff3ee">
    <ellipse cx="50.649" cy="120.11" rx="10.583" ry="6.8036"/>
    <ellipse cx="116.42" cy="166.22" rx="6.8036" ry="11.339"/>
    <ellipse cx="164.04" cy="153.37" rx="6.8036" ry="11.339"/>
    <ellipse cx="94.494" cy="203.26" rx="10.583" ry="6.8036"/>
    <ellipse cx="151.19" cy="112.55" rx="10.583" ry="6.8036"/>
    <ellipse cx="53.673" cy="176.05" rx="6.8036" ry="11.339"/>
    <ellipse cx="99.03" cy="83.065" rx="6.8036" ry="11.339"/>
    <ellipse cx="86.935" cy="135.98" rx="10.583" ry="6.8036"/>
    <ellipse cx="146.65" cy="205.53" rx="10.583" ry="6.8036"/>
   </g>
  </g>
  <g transform="matrix(.089366 0 0 .089366 55.368 179.86)">
   <ellipse cx="108.1" cy="151.86" rx="95.25" ry="94.494" fill="#ce4410"/>
   <g fill="#fff3ee">
    <ellipse cx="50.649" cy="120.11" rx="10.583" ry="6.8036"/>
    <ellipse cx="116.42" cy="166.22" rx="6.8036" ry="11.339"/>
    <ellipse cx="164.04" cy="153.37" rx="6.8036" ry="11.339"/>
    <ellipse cx="94.494" cy="203.26" rx="10.583" ry="6.8036"/>
    <ellipse cx="151.19" cy="112.55" rx="10.583" ry="6.8036"/>
    <ellipse cx="53.673" cy="176.05" rx="6.8036" ry="11.339"/>
    <ellipse cx="99.03" cy="83.065" rx="6.8036" ry="11.339"/>
    <ellipse cx="86.935" cy="135.98" rx="10.583" ry="6.8036"/>
    <ellipse cx="146.65" cy="205.53" rx="10.583" ry="6.8036"/>
   </g>
  </g>
  <g transform="matrix(.089366 0 0 .089366 81.123 86.159)">
   <ellipse cx="108.1" cy="151.86" rx="95.25" ry="94.494" fill="#ce4410"/>
   <g fill="#fff3ee">
    <ellipse cx="50.649" cy="120.11" rx="10.583" ry="6.8036"/>
    <ellipse cx="116.42" cy="166.22" rx="6.8036" ry="11.339"/>
    <ellipse cx="164.04" cy="153.37" rx="6.8036" ry="11.339"/>
    <ellipse cx="94.494" cy="203.26" rx="10.583" ry="6.8036"/>
    <ellipse cx="151.19" cy="112.55" rx="10.583" ry="6.8036"/>
    <ellipse cx="53.673" cy="176.05" rx="6.8036" ry="11.339"/>
    <ellipse cx="99.03" cy="83.065" rx="6.8036" ry="11.339"/>
    <ellipse cx="86.935" cy="135.98" rx="10.583" ry="6.8036"/>
    <ellipse cx="146.65" cy="205.53" rx="10.583" ry="6.8036"/>
   </g>
  </g>
  <g transform="matrix(.089366 0 0 .089366 87.15 121.23)">
   <ellipse cx="108.1" cy="151.86" rx="95.25" ry="94.494" fill="#ce4410"/>
   <g fill="#fff3ee">
    <ellipse cx="50.649" cy="120.11" rx="10.583" ry="6.8036"/>
    <ellipse cx="116.42" cy="166.22" rx="6.8036" ry="11.339"/>
    <ellipse cx="164.04" cy="153.37" rx="6.8036" ry="11.339"/>
    <ellipse cx="94.494" cy="203.26" rx="10.583" ry="6.8036"/>
    <ellipse cx="151.19" cy="112.55" rx="10.583" ry="6.8036"/>
    <ellipse cx="53.673" cy="176.05" rx="6.8036" ry="11.339"/>
    <ellipse cx="99.03" cy="83.065" rx="6.8036" ry="11.339"/>
    <ellipse cx="86.935" cy="135.98" rx="10.583" ry="6.8036"/>
    <ellipse cx="146.65" cy="205.53" rx="10.583" ry="6.8036"/>
   </g>
  </g>
  <g transform="matrix(.089366 0 0 .089366 121.67 125.61)">
   <ellipse cx="108.1" cy="151.86" rx="95.25" ry="94.494" fill="#ce4410"/>
   <g fill="#fff3ee">
    <ellipse cx="50.649" cy="120.11" rx="10.583" ry="6.8036"/>
    <ellipse cx="116.42" cy="166.22" rx="6.8036" ry="11.339"/>
    <ellipse cx="164.04" cy="153.37" rx="6.8036" ry="11.339"/>
    <ellipse cx="94.494" cy="203.26" rx="10.583" ry="6.8036"/>
    <ellipse cx="151.19" cy="112.55" rx="10.583" ry="6.8036"/>
    <ellipse cx="53.673" cy="176.05" rx="6.8036" ry="11.339"/>
    <ellipse cx="99.03" cy="83.065" rx="6.8036" ry="11.339"/>
    <ellipse cx="86.935" cy="135.98" rx="10.583" ry="6.8036"/>
    <ellipse cx="146.65" cy="205.53" rx="10.583" ry="6.8036"/>
   </g>
  </g>
  <g transform="matrix(.089366 0 0 .089366 127.15 96.023)">
   <ellipse cx="108.1" cy="151.86" rx="95.25" ry="94.494" fill="#ce4410"/>
   <g fill="#fff3ee">
    <ellipse cx="50.649" cy="120.11" rx="10.583" ry="6.8036"/>
    <ellipse cx="116.42" cy="166.22" rx="6.8036" ry="11.339"/>
    <ellipse cx="164.04" cy="153.37" rx="6.8036" ry="11.339"/>
    <ellipse cx="94.494" cy="203.26" rx="10.583" ry="6.8036"/>
    <ellipse cx="151.19" cy="112.55" rx="10.583" ry="6.8036"/>
    <ellipse cx="53.673" cy="176.05" rx="6.8036" ry="11.339"/>
    <ellipse cx="99.03" cy="83.065" rx="6.8036" ry="11.339"/>
    <ellipse cx="86.935" cy="135.98" rx="10.583" ry="6.8036"/>
    <ellipse cx="146.65" cy="205.53" rx="10.583" ry="6.8036"/>
   </g>
  </g>
  <g transform="matrix(.089366 0 0 .089366 155.1 135.48)">
   <ellipse cx="108.1" cy="151.86" rx="95.25" ry="94.494" fill="#ce4410"/>
   <g fill="#fff3ee">
    <ellipse cx="50.649" cy="120.11" rx="10.583" ry="6.8036"/>
    <ellipse cx="116.42" cy="166.22" rx="6.8036" ry="11.339"/>
    <ellipse cx="164.04" cy="153.37" rx="6.8036" ry="11.339"/>
    <ellipse cx="94.494" cy="203.26" rx="10.583" ry="6.8036"/>
    <ellipse cx="151.19" cy="112.55" rx="10.583" ry="6.8036"/>
    <ellipse cx="53.673" cy="176.05" rx="6.8036" ry="11.339"/>
    <ellipse cx="99.03" cy="83.065" rx="6.8036" ry="11.339"/>
    <ellipse cx="86.935" cy="135.98" rx="10.583" ry="6.8036"/>
    <ellipse cx="146.65" cy="205.53" rx="10.583" ry="6.8036"/>
   </g>
  </g>
  <g transform="matrix(.089366 0 0 .089366 146.88 170)">
   <ellipse cx="108.1" cy="151.86" rx="95.25" ry="94.494" fill="#ce4410"/>
   <g fill="#fff3ee">
    <ellipse cx="50.649" cy="120.11" rx="10.583" ry="6.8036"/>
    <ellipse cx="116.42" cy="166.22" rx="6.8036" ry="11.339"/>
    <ellipse cx="164.04" cy="153.37" rx="6.8036" ry="11.339"/>
    <ellipse cx="94.494" cy="203.26" rx="10.583" ry="6.8036"/>
    <ellipse cx="151.19" cy="112.55" rx="10.583" ry="6.8036"/>
    <ellipse cx="53.673" cy="176.05" rx="6.8036" ry="11.339"/>
    <ellipse cx="99.03" cy="83.065" rx="6.8036" ry="11.339"/>
    <ellipse cx="86.935" cy="135.98" rx="10.583" ry="6.8036"/>
    <ellipse cx="146.65" cy="205.53" rx="10.583" ry="6.8036"/>
   </g>
  </g>
  <g transform="matrix(.089366 0 0 .089366 120.58 188.63)">
   <ellipse cx="108.1" cy="151.86" rx="95.25" ry="94.494" fill="#ce4410"/>
   <g fill="#fff3ee">
    <ellipse cx="50.649" cy="120.11" rx="10.583" ry="6.8036"/>
    <ellipse cx="116.42" cy="166.22" rx="6.8036" ry="11.339"/>
    <ellipse cx="164.04" cy="153.37" rx="6.8036" ry="11.339"/>
    <ellipse cx="94.494" cy="203.26" rx="10.583" ry="6.8036"/>
    <ellipse cx="151.19" cy="112.55" rx="10.583" ry="6.8036"/>
    <ellipse cx="53.673" cy="176.05" rx="6.8036" ry="11.339"/>
    <ellipse cx="99.03" cy="83.065" rx="6.8036" ry="11.339"/>
    <ellipse cx="86.935" cy="135.98" rx="10.583" ry="6.8036"/>
    <ellipse cx="146.65" cy="205.53" rx="10.583" ry="6.8036"/>
   </g>
  </g>
  <g transform="matrix(.089366 0 0 .089366 89.342 195.75)">
   <ellipse cx="108.1" cy="151.86" rx="95.25" ry="94.494" fill="#ce4410"/>
   <g fill="#fff3ee">
    <ellipse cx="50.649" cy="120.11" rx="10.583" ry="6.8036"/>
    <ellipse cx="116.42" cy="166.22" rx="6.8036" ry="11.339"/>
    <ellipse cx="164.04" cy="153.37" rx="6.8036" ry="11.339"/>
    <ellipse cx="94.494" cy="203.26" rx="10.583" ry="6.8036"/>
    <ellipse cx="151.19" cy="112.55" rx="10.583" ry="6.8036"/>
    <ellipse cx="53.673" cy="176.05" rx="6.8036" ry="11.339"/>
    <ellipse cx="99.03" cy="83.065" rx="6.8036" ry="11.339"/>
    <ellipse cx="86.935" cy="135.98" rx="10.583" ry="6.8036"/>
    <ellipse cx="146.65" cy="205.53" rx="10.583" ry="6.8036"/>
   </g>
  </g>
  <g transform="matrix(.089366 0 0 .089366 106.33 160.68)">
   <ellipse cx="108.1" cy="151.86" rx="95.25" ry="94.494" fill="#ce4410"/>
   <g fill="#fff3ee">
    <ellipse cx="50.649" cy="120.11" rx="10.583" ry="6.8036"/>
    <ellipse cx="116.42" cy="166.22" rx="6.8036" ry="11.339"/>
    <ellipse cx="164.04" cy="153.37" rx="6.8036" ry="11.339"/>
    <ellipse cx="94.494" cy="203.26" rx="10.583" ry="6.8036"/>
    <ellipse cx="151.19" cy="112.55" rx="10.583" ry="6.8036"/>
    <ellipse cx="53.673" cy="176.05" rx="6.8036" ry="11.339"/>
    <ellipse cx="99.03" cy="83.065" rx="6.8036" ry="11.339"/>
    <ellipse cx="86.935" cy="135.98" rx="10.583" ry="6.8036"/>
    <ellipse cx="146.65" cy="205.53" rx="10.583" ry="6.8036"/>
   </g>
  </g>
 </g>
</svg>
