<?xml version="1.0" encoding="UTF-8"?>
<!-- Created with Inkscape (http://www.inkscape.org/) -->
<svg version="1.1" viewBox="0 40 210 220" xmlns="http://www.w3.org/2000/svg" xmlns:cc="http://creativecommons.org/ns#" xmlns:dc="http://purl.org/dc/elements/1.1/" xmlns:rdf="http://www.w3.org/1999/02/22-rdf-syntax-ns#">
 <metadata>
  <rdf:RDF>
   <cc:Work rdf:about="">
    <dc:format>image/svg+xml</dc:format>
    <dc:type rdf:resource="http://purl.org/dc/dcmitype/StillImage"/>
    <dc:title/>
   </cc:Work>
  </rdf:RDF>
 </metadata>
 <g transform="matrix(1.6284 0 0 1.6284 -63.427 -103.42)">
  <g transform="matrix(.095499 0 0 .095499 53.558 95.086)">
   <g transform="matrix(1.1691,0,0,1.1691,-18.713,-32.553)">
    <path transform="scale(.26458)" d="m543 991.11c6.3848-4.8467 6.3566-7.4513-0.0806-7.4513-25.538 0-133.53-81.72-166.49-125.99-26.324-35.352-55.847-104.36-89.86-210.06-10.556-32.803-23.096-67.361-27.866-76.796-7.565-14.964-8.9672-21.535-10.976-51.441-1.8226-27.133-4.8652-43.226-14.585-77.143l-12.282-42.857 0.094-84.286c0.0649-58.221 1.2694-90.25 3.8949-103.57 2.0905-10.607 4.6197-19.269 5.6203-19.249 1.0006 0.0201 12.44 6.9281 25.42 15.351 12.981 8.4231 29.373 16.931 36.429 18.906 7.0552 1.9753 12.828 4.1311 12.828 4.7906 0 0.65953-2.1371 5.3139-4.7492 10.343-3.9135 7.5349-4.6893 17.439-4.4088 56.287 0.18723 25.929 1.6709 58.714 3.2971 72.857s2.9673 38.078 2.9802 53.189c0.0351 41.102 19.205 132.66 40.995 195.79 21.353 61.869 41.559 101.12 64.502 125.31 32.672 34.437 60.884 71.133 71.694 93.254 19.409 39.718 59.627 80.893 90.69 92.848 7.4565 2.8698 12.104 6.4534 12.041 9.2854-0.20714 9.3825-8.1694 38.014-12.343 44.384-3.9479 6.0252-15.59 10.364-27.198 10.137-4.1144-0.0806-4.0738-0.52289 0.35714-3.8864z" fill="#286b33" stroke="#1c7832" stroke-width="10.799"/>
   </g>
   <path d="m157.95 256.84c-0.16073-0.26007-1.3499-0.63147-2.6427-0.82533-2.5426-0.38129-3.521-1.2158-4.5885-3.9136-0.65586-1.6575-0.81858-1.7372-3.5439-1.7372-3.7329 0-7.0072-1.1414-12.248-4.2697-2.352-1.4039-4.8777-2.7358-5.6127-2.9598-0.73499-0.22407-1.6779-0.89285-2.0954-1.4862-0.41745-0.59333-2.1882-2.7838-3.9349-4.8678s-4.1413-5.7133-5.3212-8.0653-2.5671-4.8777-3.0826-5.6127c-1.25-1.7822-4.3452-10.901-4.6007-13.554-0.29388-3.0511-2.3478-6.1852-6.5922-10.059-4.673-4.265-7.9473-8.4642-11.078-14.207-2.1634-3.9688-2.4865-5.0011-2.791-8.9177-0.30779-3.9584-0.55586-4.7356-2.3331-7.3103-2.3388-3.3881-3.1716-4.6349-5.4951-8.2264-1.5485-2.3936-1.7609-3.203-2.034-7.7508-0.29778-4.9589-1.781-11.343-3.3212-14.296-0.42259-0.81012-0.76983-1.8515-0.77164-2.3142-0.0019-0.46268-0.60465-2.8504-1.3396-5.306-1.2683-4.2374-1.3364-5.1345-1.3364-17.622 0-9.4377-0.20899-13.982-0.73932-16.076-0.40663-1.6053-0.90323-4.7227-1.1036-6.9277-0.20033-2.205-0.9705-6.2942-1.7115-9.0872-0.86765-3.2703-1.4889-7.4568-1.7451-11.76-0.24224-4.0681-0.72313-7.4136-1.2294-8.5526-2.1676-4.8772-3.0058-10.27-3.0538-19.649l-0.03902-7.6218 2.9352 1.6565c1.6143 0.91107 3.6712 2.3441 4.5708 3.1844 0.89961 0.84036 2.1045 1.6767 2.6775 1.8586 1.2351 0.39202 1.3008 0.95296 0.29844 2.5492-0.59454 0.94682-0.79616 5.887-1.0068 24.669-0.2598 23.167-0.132 25.557 1.4743 27.563 0.91198 1.1395 3.8703 8.784 4.8196 12.454 0.4562 1.7638 0.80298 5.4498 0.80462 8.5526 0.0036 6.762 1.6822 18.477 3.5053 24.463 0.92348 3.0322 1.5205 6.6443 1.8218 11.023 0.40572 5.8956 0.64579 6.9604 2.5341 11.24 1.1473 2.5999 4.0201 7.7274 6.384 11.394 5.8172 9.0242 6.859 10.889 8.4625 15.149 1.4054 3.7337 3.1071 5.8946 12.87 16.343 7.0157 7.5082 11.993 14.68 11.993 17.28 0 2.1263 3.8914 7.3584 9.7544 13.115 3.308 3.248 7.0483 7.0229 8.3119 8.3886s3.0676 2.8099 4.009 3.2093c2.1733 0.92213 10.334 9.3541 9.0527 9.3541-0.3279 0-0.72768-0.21279-0.88842-0.47286z" fill="#69d37a" stroke="#1c7832" stroke-width="2.0203"/>
  </g>
  <g transform="matrix(.095499 0 0 .095499 80.797 111.14)">
   <g transform="matrix(1.1691,0,0,1.1691,-18.713,-32.553)">
    <path transform="scale(.26458)" d="m543 991.11c6.3848-4.8467 6.3566-7.4513-0.0806-7.4513-25.538 0-133.53-81.72-166.49-125.99-26.324-35.352-55.847-104.36-89.86-210.06-10.556-32.803-23.096-67.361-27.866-76.796-7.565-14.964-8.9672-21.535-10.976-51.441-1.8226-27.133-4.8652-43.226-14.585-77.143l-12.282-42.857 0.094-84.286c0.0649-58.221 1.2694-90.25 3.8949-103.57 2.0905-10.607 4.6197-19.269 5.6203-19.249 1.0006 0.0201 12.44 6.9281 25.42 15.351 12.981 8.4231 29.373 16.931 36.429 18.906 7.0552 1.9753 12.828 4.1311 12.828 4.7906 0 0.65953-2.1371 5.3139-4.7492 10.343-3.9135 7.5349-4.6893 17.439-4.4088 56.287 0.18723 25.929 1.6709 58.714 3.2971 72.857s2.9673 38.078 2.9802 53.189c0.0351 41.102 19.205 132.66 40.995 195.79 21.353 61.869 41.559 101.12 64.502 125.31 32.672 34.437 60.884 71.133 71.694 93.254 19.409 39.718 59.627 80.893 90.69 92.848 7.4565 2.8698 12.104 6.4534 12.041 9.2854-0.20714 9.3825-8.1694 38.014-12.343 44.384-3.9479 6.0252-15.59 10.364-27.198 10.137-4.1144-0.0806-4.0738-0.52289 0.35714-3.8864z" fill="#286b33" stroke="#1c7832" stroke-width="10.799"/>
   </g>
   <path d="m157.95 256.84c-0.16073-0.26007-1.3499-0.63147-2.6427-0.82533-2.5426-0.38129-3.521-1.2158-4.5885-3.9136-0.65586-1.6575-0.81858-1.7372-3.5439-1.7372-3.7329 0-7.0072-1.1414-12.248-4.2697-2.352-1.4039-4.8777-2.7358-5.6127-2.9598-0.73499-0.22407-1.6779-0.89285-2.0954-1.4862-0.41745-0.59333-2.1882-2.7838-3.9349-4.8678s-4.1413-5.7133-5.3212-8.0653-2.5671-4.8777-3.0826-5.6127c-1.25-1.7822-4.3452-10.901-4.6007-13.554-0.29388-3.0511-2.3478-6.1852-6.5922-10.059-4.673-4.265-7.9473-8.4642-11.078-14.207-2.1634-3.9688-2.4865-5.0011-2.791-8.9177-0.30779-3.9584-0.55586-4.7356-2.3331-7.3103-2.3388-3.3881-3.1716-4.6349-5.4951-8.2264-1.5485-2.3936-1.7609-3.203-2.034-7.7508-0.29778-4.9589-1.781-11.343-3.3212-14.296-0.42259-0.81012-0.76983-1.8515-0.77164-2.3142-0.0019-0.46268-0.60465-2.8504-1.3396-5.306-1.2683-4.2374-1.3364-5.1345-1.3364-17.622 0-9.4377-0.20899-13.982-0.73932-16.076-0.40663-1.6053-0.90323-4.7227-1.1036-6.9277-0.20033-2.205-0.9705-6.2942-1.7115-9.0872-0.86765-3.2703-1.4889-7.4568-1.7451-11.76-0.24224-4.0681-0.72313-7.4136-1.2294-8.5526-2.1676-4.8772-3.0058-10.27-3.0538-19.649l-0.03902-7.6218 2.9352 1.6565c1.6143 0.91107 3.6712 2.3441 4.5708 3.1844 0.89961 0.84036 2.1045 1.6767 2.6775 1.8586 1.2351 0.39202 1.3008 0.95296 0.29844 2.5492-0.59454 0.94682-0.79616 5.887-1.0068 24.669-0.2598 23.167-0.132 25.557 1.4743 27.563 0.91198 1.1395 3.8703 8.784 4.8196 12.454 0.4562 1.7638 0.80298 5.4498 0.80462 8.5526 0.0036 6.762 1.6822 18.477 3.5053 24.463 0.92348 3.0322 1.5205 6.6443 1.8218 11.023 0.40572 5.8956 0.64579 6.9604 2.5341 11.24 1.1473 2.5999 4.0201 7.7274 6.384 11.394 5.8172 9.0242 6.859 10.889 8.4625 15.149 1.4054 3.7337 3.1071 5.8946 12.87 16.343 7.0157 7.5082 11.993 14.68 11.993 17.28 0 2.1263 3.8914 7.3584 9.7544 13.115 3.308 3.248 7.0483 7.0229 8.3119 8.3886s3.0676 2.8099 4.009 3.2093c2.1733 0.92213 10.334 9.3541 9.0527 9.3541-0.3279 0-0.72768-0.21279-0.88842-0.47286z" fill="#69d37a" stroke="#1c7832" stroke-width="2.0203"/>
  </g>
  <g transform="matrix(.095499 0 0 .095499 110.8 90.046)">
   <g transform="matrix(1.1691,0,0,1.1691,-18.713,-32.553)">
    <path transform="scale(.26458)" d="m543 991.11c6.3848-4.8467 6.3566-7.4513-0.0806-7.4513-25.538 0-133.53-81.72-166.49-125.99-26.324-35.352-55.847-104.36-89.86-210.06-10.556-32.803-23.096-67.361-27.866-76.796-7.565-14.964-8.9672-21.535-10.976-51.441-1.8226-27.133-4.8652-43.226-14.585-77.143l-12.282-42.857 0.094-84.286c0.0649-58.221 1.2694-90.25 3.8949-103.57 2.0905-10.607 4.6197-19.269 5.6203-19.249 1.0006 0.0201 12.44 6.9281 25.42 15.351 12.981 8.4231 29.373 16.931 36.429 18.906 7.0552 1.9753 12.828 4.1311 12.828 4.7906 0 0.65953-2.1371 5.3139-4.7492 10.343-3.9135 7.5349-4.6893 17.439-4.4088 56.287 0.18723 25.929 1.6709 58.714 3.2971 72.857s2.9673 38.078 2.9802 53.189c0.0351 41.102 19.205 132.66 40.995 195.79 21.353 61.869 41.559 101.12 64.502 125.31 32.672 34.437 60.884 71.133 71.694 93.254 19.409 39.718 59.627 80.893 90.69 92.848 7.4565 2.8698 12.104 6.4534 12.041 9.2854-0.20714 9.3825-8.1694 38.014-12.343 44.384-3.9479 6.0252-15.59 10.364-27.198 10.137-4.1144-0.0806-4.0738-0.52289 0.35714-3.8864z" fill="#286b33" stroke="#1c7832" stroke-width="10.799"/>
   </g>
   <path d="m157.95 256.84c-0.16073-0.26007-1.3499-0.63147-2.6427-0.82533-2.5426-0.38129-3.521-1.2158-4.5885-3.9136-0.65586-1.6575-0.81858-1.7372-3.5439-1.7372-3.7329 0-7.0072-1.1414-12.248-4.2697-2.352-1.4039-4.8777-2.7358-5.6127-2.9598-0.73499-0.22407-1.6779-0.89285-2.0954-1.4862-0.41745-0.59333-2.1882-2.7838-3.9349-4.8678s-4.1413-5.7133-5.3212-8.0653-2.5671-4.8777-3.0826-5.6127c-1.25-1.7822-4.3452-10.901-4.6007-13.554-0.29388-3.0511-2.3478-6.1852-6.5922-10.059-4.673-4.265-7.9473-8.4642-11.078-14.207-2.1634-3.9688-2.4865-5.0011-2.791-8.9177-0.30779-3.9584-0.55586-4.7356-2.3331-7.3103-2.3388-3.3881-3.1716-4.6349-5.4951-8.2264-1.5485-2.3936-1.7609-3.203-2.034-7.7508-0.29778-4.9589-1.781-11.343-3.3212-14.296-0.42259-0.81012-0.76983-1.8515-0.77164-2.3142-0.0019-0.46268-0.60465-2.8504-1.3396-5.306-1.2683-4.2374-1.3364-5.1345-1.3364-17.622 0-9.4377-0.20899-13.982-0.73932-16.076-0.40663-1.6053-0.90323-4.7227-1.1036-6.9277-0.20033-2.205-0.9705-6.2942-1.7115-9.0872-0.86765-3.2703-1.4889-7.4568-1.7451-11.76-0.24224-4.0681-0.72313-7.4136-1.2294-8.5526-2.1676-4.8772-3.0058-10.27-3.0538-19.649l-0.03902-7.6218 2.9352 1.6565c1.6143 0.91107 3.6712 2.3441 4.5708 3.1844 0.89961 0.84036 2.1045 1.6767 2.6775 1.8586 1.2351 0.39202 1.3008 0.95296 0.29844 2.5492-0.59454 0.94682-0.79616 5.887-1.0068 24.669-0.2598 23.167-0.132 25.557 1.4743 27.563 0.91198 1.1395 3.8703 8.784 4.8196 12.454 0.4562 1.7638 0.80298 5.4498 0.80462 8.5526 0.0036 6.762 1.6822 18.477 3.5053 24.463 0.92348 3.0322 1.5205 6.6443 1.8218 11.023 0.40572 5.8956 0.64579 6.9604 2.5341 11.24 1.1473 2.5999 4.0201 7.7274 6.384 11.394 5.8172 9.0242 6.859 10.889 8.4625 15.149 1.4054 3.7337 3.1071 5.8946 12.87 16.343 7.0157 7.5082 11.993 14.68 11.993 17.28 0 2.1263 3.8914 7.3584 9.7544 13.115 3.308 3.248 7.0483 7.0229 8.3119 8.3886s3.0676 2.8099 4.009 3.2093c2.1733 0.92213 10.334 9.3541 9.0527 9.3541-0.3279 0-0.72768-0.21279-0.88842-0.47286z" fill="#69d37a" stroke="#1c7832" stroke-width="2.0203"/>
  </g>
  <g transform="matrix(.095499 0 0 .095499 150.67 112.01)">
   <g transform="matrix(1.1691,0,0,1.1691,-18.713,-32.553)">
    <path transform="scale(.26458)" d="m543 991.11c6.3848-4.8467 6.3566-7.4513-0.0806-7.4513-25.538 0-133.53-81.72-166.49-125.99-26.324-35.352-55.847-104.36-89.86-210.06-10.556-32.803-23.096-67.361-27.866-76.796-7.565-14.964-8.9672-21.535-10.976-51.441-1.8226-27.133-4.8652-43.226-14.585-77.143l-12.282-42.857 0.094-84.286c0.0649-58.221 1.2694-90.25 3.8949-103.57 2.0905-10.607 4.6197-19.269 5.6203-19.249 1.0006 0.0201 12.44 6.9281 25.42 15.351 12.981 8.4231 29.373 16.931 36.429 18.906 7.0552 1.9753 12.828 4.1311 12.828 4.7906 0 0.65953-2.1371 5.3139-4.7492 10.343-3.9135 7.5349-4.6893 17.439-4.4088 56.287 0.18723 25.929 1.6709 58.714 3.2971 72.857s2.9673 38.078 2.9802 53.189c0.0351 41.102 19.205 132.66 40.995 195.79 21.353 61.869 41.559 101.12 64.502 125.31 32.672 34.437 60.884 71.133 71.694 93.254 19.409 39.718 59.627 80.893 90.69 92.848 7.4565 2.8698 12.104 6.4534 12.041 9.2854-0.20714 9.3825-8.1694 38.014-12.343 44.384-3.9479 6.0252-15.59 10.364-27.198 10.137-4.1144-0.0806-4.0738-0.52289 0.35714-3.8864z" fill="#286b33" stroke="#1c7832" stroke-width="10.799"/>
   </g>
   <path d="m157.95 256.84c-0.16073-0.26007-1.3499-0.63147-2.6427-0.82533-2.5426-0.38129-3.521-1.2158-4.5885-3.9136-0.65586-1.6575-0.81858-1.7372-3.5439-1.7372-3.7329 0-7.0072-1.1414-12.248-4.2697-2.352-1.4039-4.8777-2.7358-5.6127-2.9598-0.73499-0.22407-1.6779-0.89285-2.0954-1.4862-0.41745-0.59333-2.1882-2.7838-3.9349-4.8678s-4.1413-5.7133-5.3212-8.0653-2.5671-4.8777-3.0826-5.6127c-1.25-1.7822-4.3452-10.901-4.6007-13.554-0.29388-3.0511-2.3478-6.1852-6.5922-10.059-4.673-4.265-7.9473-8.4642-11.078-14.207-2.1634-3.9688-2.4865-5.0011-2.791-8.9177-0.30779-3.9584-0.55586-4.7356-2.3331-7.3103-2.3388-3.3881-3.1716-4.6349-5.4951-8.2264-1.5485-2.3936-1.7609-3.203-2.034-7.7508-0.29778-4.9589-1.781-11.343-3.3212-14.296-0.42259-0.81012-0.76983-1.8515-0.77164-2.3142-0.0019-0.46268-0.60465-2.8504-1.3396-5.306-1.2683-4.2374-1.3364-5.1345-1.3364-17.622 0-9.4377-0.20899-13.982-0.73932-16.076-0.40663-1.6053-0.90323-4.7227-1.1036-6.9277-0.20033-2.205-0.9705-6.2942-1.7115-9.0872-0.86765-3.2703-1.4889-7.4568-1.7451-11.76-0.24224-4.0681-0.72313-7.4136-1.2294-8.5526-2.1676-4.8772-3.0058-10.27-3.0538-19.649l-0.03902-7.6218 2.9352 1.6565c1.6143 0.91107 3.6712 2.3441 4.5708 3.1844 0.89961 0.84036 2.1045 1.6767 2.6775 1.8586 1.2351 0.39202 1.3008 0.95296 0.29844 2.5492-0.59454 0.94682-0.79616 5.887-1.0068 24.669-0.2598 23.167-0.132 25.557 1.4743 27.563 0.91198 1.1395 3.8703 8.784 4.8196 12.454 0.4562 1.7638 0.80298 5.4498 0.80462 8.5526 0.0036 6.762 1.6822 18.477 3.5053 24.463 0.92348 3.0322 1.5205 6.6443 1.8218 11.023 0.40572 5.8956 0.64579 6.9604 2.5341 11.24 1.1473 2.5999 4.0201 7.7274 6.384 11.394 5.8172 9.0242 6.859 10.889 8.4625 15.149 1.4054 3.7337 3.1071 5.8946 12.87 16.343 7.0157 7.5082 11.993 14.68 11.993 17.28 0 2.1263 3.8914 7.3584 9.7544 13.115 3.308 3.248 7.0483 7.0229 8.3119 8.3886s3.0676 2.8099 4.009 3.2093c2.1733 0.92213 10.334 9.3541 9.0527 9.3541-0.3279 0-0.72768-0.21279-0.88842-0.47286z" fill="#69d37a" stroke="#1c7832" stroke-width="2.0203"/>
  </g>
  <g transform="matrix(.095499 0 0 .095499 114.68 135.55)">
   <g transform="matrix(1.1691,0,0,1.1691,-18.713,-32.553)">
    <path transform="scale(.26458)" d="m543 991.11c6.3848-4.8467 6.3566-7.4513-0.0806-7.4513-25.538 0-133.53-81.72-166.49-125.99-26.324-35.352-55.847-104.36-89.86-210.06-10.556-32.803-23.096-67.361-27.866-76.796-7.565-14.964-8.9672-21.535-10.976-51.441-1.8226-27.133-4.8652-43.226-14.585-77.143l-12.282-42.857 0.094-84.286c0.0649-58.221 1.2694-90.25 3.8949-103.57 2.0905-10.607 4.6197-19.269 5.6203-19.249 1.0006 0.0201 12.44 6.9281 25.42 15.351 12.981 8.4231 29.373 16.931 36.429 18.906 7.0552 1.9753 12.828 4.1311 12.828 4.7906 0 0.65953-2.1371 5.3139-4.7492 10.343-3.9135 7.5349-4.6893 17.439-4.4088 56.287 0.18723 25.929 1.6709 58.714 3.2971 72.857s2.9673 38.078 2.9802 53.189c0.0351 41.102 19.205 132.66 40.995 195.79 21.353 61.869 41.559 101.12 64.502 125.31 32.672 34.437 60.884 71.133 71.694 93.254 19.409 39.718 59.627 80.893 90.69 92.848 7.4565 2.8698 12.104 6.4534 12.041 9.2854-0.20714 9.3825-8.1694 38.014-12.343 44.384-3.9479 6.0252-15.59 10.364-27.198 10.137-4.1144-0.0806-4.0738-0.52289 0.35714-3.8864z" fill="#286b33" stroke="#1c7832" stroke-width="10.799"/>
   </g>
   <path d="m157.95 256.84c-0.16073-0.26007-1.3499-0.63147-2.6427-0.82533-2.5426-0.38129-3.521-1.2158-4.5885-3.9136-0.65586-1.6575-0.81858-1.7372-3.5439-1.7372-3.7329 0-7.0072-1.1414-12.248-4.2697-2.352-1.4039-4.8777-2.7358-5.6127-2.9598-0.73499-0.22407-1.6779-0.89285-2.0954-1.4862-0.41745-0.59333-2.1882-2.7838-3.9349-4.8678s-4.1413-5.7133-5.3212-8.0653-2.5671-4.8777-3.0826-5.6127c-1.25-1.7822-4.3452-10.901-4.6007-13.554-0.29388-3.0511-2.3478-6.1852-6.5922-10.059-4.673-4.265-7.9473-8.4642-11.078-14.207-2.1634-3.9688-2.4865-5.0011-2.791-8.9177-0.30779-3.9584-0.55586-4.7356-2.3331-7.3103-2.3388-3.3881-3.1716-4.6349-5.4951-8.2264-1.5485-2.3936-1.7609-3.203-2.034-7.7508-0.29778-4.9589-1.781-11.343-3.3212-14.296-0.42259-0.81012-0.76983-1.8515-0.77164-2.3142-0.0019-0.46268-0.60465-2.8504-1.3396-5.306-1.2683-4.2374-1.3364-5.1345-1.3364-17.622 0-9.4377-0.20899-13.982-0.73932-16.076-0.40663-1.6053-0.90323-4.7227-1.1036-6.9277-0.20033-2.205-0.9705-6.2942-1.7115-9.0872-0.86765-3.2703-1.4889-7.4568-1.7451-11.76-0.24224-4.0681-0.72313-7.4136-1.2294-8.5526-2.1676-4.8772-3.0058-10.27-3.0538-19.649l-0.03902-7.6218 2.9352 1.6565c1.6143 0.91107 3.6712 2.3441 4.5708 3.1844 0.89961 0.84036 2.1045 1.6767 2.6775 1.8586 1.2351 0.39202 1.3008 0.95296 0.29844 2.5492-0.59454 0.94682-0.79616 5.887-1.0068 24.669-0.2598 23.167-0.132 25.557 1.4743 27.563 0.91198 1.1395 3.8703 8.784 4.8196 12.454 0.4562 1.7638 0.80298 5.4498 0.80462 8.5526 0.0036 6.762 1.6822 18.477 3.5053 24.463 0.92348 3.0322 1.5205 6.6443 1.8218 11.023 0.40572 5.8956 0.64579 6.9604 2.5341 11.24 1.1473 2.5999 4.0201 7.7274 6.384 11.394 5.8172 9.0242 6.859 10.889 8.4625 15.149 1.4054 3.7337 3.1071 5.8946 12.87 16.343 7.0157 7.5082 11.993 14.68 11.993 17.28 0 2.1263 3.8914 7.3584 9.7544 13.115 3.308 3.248 7.0483 7.0229 8.3119 8.3886s3.0676 2.8099 4.009 3.2093c2.1733 0.92213 10.334 9.3541 9.0527 9.3541-0.3279 0-0.72768-0.21279-0.88842-0.47286z" fill="#69d37a" stroke="#1c7832" stroke-width="2.0203"/>
  </g>
  <g transform="matrix(.095499 0 0 .095499 77.438 139.71)">
   <g transform="matrix(1.1691,0,0,1.1691,-18.713,-32.553)">
    <path transform="scale(.26458)" d="m543 991.11c6.3848-4.8467 6.3566-7.4513-0.0806-7.4513-25.538 0-133.53-81.72-166.49-125.99-26.324-35.352-55.847-104.36-89.86-210.06-10.556-32.803-23.096-67.361-27.866-76.796-7.565-14.964-8.9672-21.535-10.976-51.441-1.8226-27.133-4.8652-43.226-14.585-77.143l-12.282-42.857 0.094-84.286c0.0649-58.221 1.2694-90.25 3.8949-103.57 2.0905-10.607 4.6197-19.269 5.6203-19.249 1.0006 0.0201 12.44 6.9281 25.42 15.351 12.981 8.4231 29.373 16.931 36.429 18.906 7.0552 1.9753 12.828 4.1311 12.828 4.7906 0 0.65953-2.1371 5.3139-4.7492 10.343-3.9135 7.5349-4.6893 17.439-4.4088 56.287 0.18723 25.929 1.6709 58.714 3.2971 72.857s2.9673 38.078 2.9802 53.189c0.0351 41.102 19.205 132.66 40.995 195.79 21.353 61.869 41.559 101.12 64.502 125.31 32.672 34.437 60.884 71.133 71.694 93.254 19.409 39.718 59.627 80.893 90.69 92.848 7.4565 2.8698 12.104 6.4534 12.041 9.2854-0.20714 9.3825-8.1694 38.014-12.343 44.384-3.9479 6.0252-15.59 10.364-27.198 10.137-4.1144-0.0806-4.0738-0.52289 0.35714-3.8864z" fill="#286b33" stroke="#1c7832" stroke-width="10.799"/>
   </g>
   <path d="m157.95 256.84c-0.16073-0.26007-1.3499-0.63147-2.6427-0.82533-2.5426-0.38129-3.521-1.2158-4.5885-3.9136-0.65586-1.6575-0.81858-1.7372-3.5439-1.7372-3.7329 0-7.0072-1.1414-12.248-4.2697-2.352-1.4039-4.8777-2.7358-5.6127-2.9598-0.73499-0.22407-1.6779-0.89285-2.0954-1.4862-0.41745-0.59333-2.1882-2.7838-3.9349-4.8678s-4.1413-5.7133-5.3212-8.0653-2.5671-4.8777-3.0826-5.6127c-1.25-1.7822-4.3452-10.901-4.6007-13.554-0.29388-3.0511-2.3478-6.1852-6.5922-10.059-4.673-4.265-7.9473-8.4642-11.078-14.207-2.1634-3.9688-2.4865-5.0011-2.791-8.9177-0.30779-3.9584-0.55586-4.7356-2.3331-7.3103-2.3388-3.3881-3.1716-4.6349-5.4951-8.2264-1.5485-2.3936-1.7609-3.203-2.034-7.7508-0.29778-4.9589-1.781-11.343-3.3212-14.296-0.42259-0.81012-0.76983-1.8515-0.77164-2.3142-0.0019-0.46268-0.60465-2.8504-1.3396-5.306-1.2683-4.2374-1.3364-5.1345-1.3364-17.622 0-9.4377-0.20899-13.982-0.73932-16.076-0.40663-1.6053-0.90323-4.7227-1.1036-6.9277-0.20033-2.205-0.9705-6.2942-1.7115-9.0872-0.86765-3.2703-1.4889-7.4568-1.7451-11.76-0.24224-4.0681-0.72313-7.4136-1.2294-8.5526-2.1676-4.8772-3.0058-10.27-3.0538-19.649l-0.03902-7.6218 2.9352 1.6565c1.6143 0.91107 3.6712 2.3441 4.5708 3.1844 0.89961 0.84036 2.1045 1.6767 2.6775 1.8586 1.2351 0.39202 1.3008 0.95296 0.29844 2.5492-0.59454 0.94682-0.79616 5.887-1.0068 24.669-0.2598 23.167-0.132 25.557 1.4743 27.563 0.91198 1.1395 3.8703 8.784 4.8196 12.454 0.4562 1.7638 0.80298 5.4498 0.80462 8.5526 0.0036 6.762 1.6822 18.477 3.5053 24.463 0.92348 3.0322 1.5205 6.6443 1.8218 11.023 0.40572 5.8956 0.64579 6.9604 2.5341 11.24 1.1473 2.5999 4.0201 7.7274 6.384 11.394 5.8172 9.0242 6.859 10.889 8.4625 15.149 1.4054 3.7337 3.1071 5.8946 12.87 16.343 7.0157 7.5082 11.993 14.68 11.993 17.28 0 2.1263 3.8914 7.3584 9.7544 13.115 3.308 3.248 7.0483 7.0229 8.3119 8.3886s3.0676 2.8099 4.009 3.2093c2.1733 0.92213 10.334 9.3541 9.0527 9.3541-0.3279 0-0.72768-0.21279-0.88842-0.47286z" fill="#69d37a" stroke="#1c7832" stroke-width="2.0203"/>
  </g>
  <g transform="matrix(.095499 0 0 .095499 36.255 132.33)">
   <g transform="matrix(1.1691,0,0,1.1691,-18.713,-32.553)">
    <path transform="scale(.26458)" d="m543 991.11c6.3848-4.8467 6.3566-7.4513-0.0806-7.4513-25.538 0-133.53-81.72-166.49-125.99-26.324-35.352-55.847-104.36-89.86-210.06-10.556-32.803-23.096-67.361-27.866-76.796-7.565-14.964-8.9672-21.535-10.976-51.441-1.8226-27.133-4.8652-43.226-14.585-77.143l-12.282-42.857 0.094-84.286c0.0649-58.221 1.2694-90.25 3.8949-103.57 2.0905-10.607 4.6197-19.269 5.6203-19.249 1.0006 0.0201 12.44 6.9281 25.42 15.351 12.981 8.4231 29.373 16.931 36.429 18.906 7.0552 1.9753 12.828 4.1311 12.828 4.7906 0 0.65953-2.1371 5.3139-4.7492 10.343-3.9135 7.5349-4.6893 17.439-4.4088 56.287 0.18723 25.929 1.6709 58.714 3.2971 72.857s2.9673 38.078 2.9802 53.189c0.0351 41.102 19.205 132.66 40.995 195.79 21.353 61.869 41.559 101.12 64.502 125.31 32.672 34.437 60.884 71.133 71.694 93.254 19.409 39.718 59.627 80.893 90.69 92.848 7.4565 2.8698 12.104 6.4534 12.041 9.2854-0.20714 9.3825-8.1694 38.014-12.343 44.384-3.9479 6.0252-15.59 10.364-27.198 10.137-4.1144-0.0806-4.0738-0.52289 0.35714-3.8864z" fill="#286b33" stroke="#1c7832" stroke-width="10.799"/>
   </g>
   <path d="m157.95 256.84c-0.16073-0.26007-1.3499-0.63147-2.6427-0.82533-2.5426-0.38129-3.521-1.2158-4.5885-3.9136-0.65586-1.6575-0.81858-1.7372-3.5439-1.7372-3.7329 0-7.0072-1.1414-12.248-4.2697-2.352-1.4039-4.8777-2.7358-5.6127-2.9598-0.73499-0.22407-1.6779-0.89285-2.0954-1.4862-0.41745-0.59333-2.1882-2.7838-3.9349-4.8678s-4.1413-5.7133-5.3212-8.0653-2.5671-4.8777-3.0826-5.6127c-1.25-1.7822-4.3452-10.901-4.6007-13.554-0.29388-3.0511-2.3478-6.1852-6.5922-10.059-4.673-4.265-7.9473-8.4642-11.078-14.207-2.1634-3.9688-2.4865-5.0011-2.791-8.9177-0.30779-3.9584-0.55586-4.7356-2.3331-7.3103-2.3388-3.3881-3.1716-4.6349-5.4951-8.2264-1.5485-2.3936-1.7609-3.203-2.034-7.7508-0.29778-4.9589-1.781-11.343-3.3212-14.296-0.42259-0.81012-0.76983-1.8515-0.77164-2.3142-0.0019-0.46268-0.60465-2.8504-1.3396-5.306-1.2683-4.2374-1.3364-5.1345-1.3364-17.622 0-9.4377-0.20899-13.982-0.73932-16.076-0.40663-1.6053-0.90323-4.7227-1.1036-6.9277-0.20033-2.205-0.9705-6.2942-1.7115-9.0872-0.86765-3.2703-1.4889-7.4568-1.7451-11.76-0.24224-4.0681-0.72313-7.4136-1.2294-8.5526-2.1676-4.8772-3.0058-10.27-3.0538-19.649l-0.03902-7.6218 2.9352 1.6565c1.6143 0.91107 3.6712 2.3441 4.5708 3.1844 0.89961 0.84036 2.1045 1.6767 2.6775 1.8586 1.2351 0.39202 1.3008 0.95296 0.29844 2.5492-0.59454 0.94682-0.79616 5.887-1.0068 24.669-0.2598 23.167-0.132 25.557 1.4743 27.563 0.91198 1.1395 3.8703 8.784 4.8196 12.454 0.4562 1.7638 0.80298 5.4498 0.80462 8.5526 0.0036 6.762 1.6822 18.477 3.5053 24.463 0.92348 3.0322 1.5205 6.6443 1.8218 11.023 0.40572 5.8956 0.64579 6.9604 2.5341 11.24 1.1473 2.5999 4.0201 7.7274 6.384 11.394 5.8172 9.0242 6.859 10.889 8.4625 15.149 1.4054 3.7337 3.1071 5.8946 12.87 16.343 7.0157 7.5082 11.993 14.68 11.993 17.28 0 2.1263 3.8914 7.3584 9.7544 13.115 3.308 3.248 7.0483 7.0229 8.3119 8.3886s3.0676 2.8099 4.009 3.2093c2.1733 0.92213 10.334 9.3541 9.0527 9.3541-0.3279 0-0.72768-0.21279-0.88842-0.47286z" fill="#69d37a" stroke="#1c7832" stroke-width="2.0203"/>
  </g>
  <g transform="matrix(.095499 0 0 .095499 58.888 172.07)">
   <g transform="matrix(1.1691,0,0,1.1691,-18.713,-32.553)">
    <path transform="scale(.26458)" d="m543 991.11c6.3848-4.8467 6.3566-7.4513-0.0806-7.4513-25.538 0-133.53-81.72-166.49-125.99-26.324-35.352-55.847-104.36-89.86-210.06-10.556-32.803-23.096-67.361-27.866-76.796-7.565-14.964-8.9672-21.535-10.976-51.441-1.8226-27.133-4.8652-43.226-14.585-77.143l-12.282-42.857 0.094-84.286c0.0649-58.221 1.2694-90.25 3.8949-103.57 2.0905-10.607 4.6197-19.269 5.6203-19.249 1.0006 0.0201 12.44 6.9281 25.42 15.351 12.981 8.4231 29.373 16.931 36.429 18.906 7.0552 1.9753 12.828 4.1311 12.828 4.7906 0 0.65953-2.1371 5.3139-4.7492 10.343-3.9135 7.5349-4.6893 17.439-4.4088 56.287 0.18723 25.929 1.6709 58.714 3.2971 72.857s2.9673 38.078 2.9802 53.189c0.0351 41.102 19.205 132.66 40.995 195.79 21.353 61.869 41.559 101.12 64.502 125.31 32.672 34.437 60.884 71.133 71.694 93.254 19.409 39.718 59.627 80.893 90.69 92.848 7.4565 2.8698 12.104 6.4534 12.041 9.2854-0.20714 9.3825-8.1694 38.014-12.343 44.384-3.9479 6.0252-15.59 10.364-27.198 10.137-4.1144-0.0806-4.0738-0.52289 0.35714-3.8864z" fill="#286b33" stroke="#1c7832" stroke-width="10.799"/>
   </g>
   <path d="m157.95 256.84c-0.16073-0.26007-1.3499-0.63147-2.6427-0.82533-2.5426-0.38129-3.521-1.2158-4.5885-3.9136-0.65586-1.6575-0.81858-1.7372-3.5439-1.7372-3.7329 0-7.0072-1.1414-12.248-4.2697-2.352-1.4039-4.8777-2.7358-5.6127-2.9598-0.73499-0.22407-1.6779-0.89285-2.0954-1.4862-0.41745-0.59333-2.1882-2.7838-3.9349-4.8678s-4.1413-5.7133-5.3212-8.0653-2.5671-4.8777-3.0826-5.6127c-1.25-1.7822-4.3452-10.901-4.6007-13.554-0.29388-3.0511-2.3478-6.1852-6.5922-10.059-4.673-4.265-7.9473-8.4642-11.078-14.207-2.1634-3.9688-2.4865-5.0011-2.791-8.9177-0.30779-3.9584-0.55586-4.7356-2.3331-7.3103-2.3388-3.3881-3.1716-4.6349-5.4951-8.2264-1.5485-2.3936-1.7609-3.203-2.034-7.7508-0.29778-4.9589-1.781-11.343-3.3212-14.296-0.42259-0.81012-0.76983-1.8515-0.77164-2.3142-0.0019-0.46268-0.60465-2.8504-1.3396-5.306-1.2683-4.2374-1.3364-5.1345-1.3364-17.622 0-9.4377-0.20899-13.982-0.73932-16.076-0.40663-1.6053-0.90323-4.7227-1.1036-6.9277-0.20033-2.205-0.9705-6.2942-1.7115-9.0872-0.86765-3.2703-1.4889-7.4568-1.7451-11.76-0.24224-4.0681-0.72313-7.4136-1.2294-8.5526-2.1676-4.8772-3.0058-10.27-3.0538-19.649l-0.03902-7.6218 2.9352 1.6565c1.6143 0.91107 3.6712 2.3441 4.5708 3.1844 0.89961 0.84036 2.1045 1.6767 2.6775 1.8586 1.2351 0.39202 1.3008 0.95296 0.29844 2.5492-0.59454 0.94682-0.79616 5.887-1.0068 24.669-0.2598 23.167-0.132 25.557 1.4743 27.563 0.91198 1.1395 3.8703 8.784 4.8196 12.454 0.4562 1.7638 0.80298 5.4498 0.80462 8.5526 0.0036 6.762 1.6822 18.477 3.5053 24.463 0.92348 3.0322 1.5205 6.6443 1.8218 11.023 0.40572 5.8956 0.64579 6.9604 2.5341 11.24 1.1473 2.5999 4.0201 7.7274 6.384 11.394 5.8172 9.0242 6.859 10.889 8.4625 15.149 1.4054 3.7337 3.1071 5.8946 12.87 16.343 7.0157 7.5082 11.993 14.68 11.993 17.28 0 2.1263 3.8914 7.3584 9.7544 13.115 3.308 3.248 7.0483 7.0229 8.3119 8.3886s3.0676 2.8099 4.009 3.2093c2.1733 0.92213 10.334 9.3541 9.0527 9.3541-0.3279 0-0.72768-0.21279-0.88842-0.47286z" fill="#69d37a" stroke="#1c7832" stroke-width="2.0203"/>
  </g>
  <g transform="matrix(.095499 0 0 .095499 89.302 198.34)">
   <g transform="matrix(1.1691,0,0,1.1691,-18.713,-32.553)">
    <path transform="scale(.26458)" d="m543 991.11c6.3848-4.8467 6.3566-7.4513-0.0806-7.4513-25.538 0-133.53-81.72-166.49-125.99-26.324-35.352-55.847-104.36-89.86-210.06-10.556-32.803-23.096-67.361-27.866-76.796-7.565-14.964-8.9672-21.535-10.976-51.441-1.8226-27.133-4.8652-43.226-14.585-77.143l-12.282-42.857 0.094-84.286c0.0649-58.221 1.2694-90.25 3.8949-103.57 2.0905-10.607 4.6197-19.269 5.6203-19.249 1.0006 0.0201 12.44 6.9281 25.42 15.351 12.981 8.4231 29.373 16.931 36.429 18.906 7.0552 1.9753 12.828 4.1311 12.828 4.7906 0 0.65953-2.1371 5.3139-4.7492 10.343-3.9135 7.5349-4.6893 17.439-4.4088 56.287 0.18723 25.929 1.6709 58.714 3.2971 72.857s2.9673 38.078 2.9802 53.189c0.0351 41.102 19.205 132.66 40.995 195.79 21.353 61.869 41.559 101.12 64.502 125.31 32.672 34.437 60.884 71.133 71.694 93.254 19.409 39.718 59.627 80.893 90.69 92.848 7.4565 2.8698 12.104 6.4534 12.041 9.2854-0.20714 9.3825-8.1694 38.014-12.343 44.384-3.9479 6.0252-15.59 10.364-27.198 10.137-4.1144-0.0806-4.0738-0.52289 0.35714-3.8864z" fill="#286b33" stroke="#1c7832" stroke-width="10.799"/>
   </g>
   <path d="m157.95 256.84c-0.16073-0.26007-1.3499-0.63147-2.6427-0.82533-2.5426-0.38129-3.521-1.2158-4.5885-3.9136-0.65586-1.6575-0.81858-1.7372-3.5439-1.7372-3.7329 0-7.0072-1.1414-12.248-4.2697-2.352-1.4039-4.8777-2.7358-5.6127-2.9598-0.73499-0.22407-1.6779-0.89285-2.0954-1.4862-0.41745-0.59333-2.1882-2.7838-3.9349-4.8678s-4.1413-5.7133-5.3212-8.0653-2.5671-4.8777-3.0826-5.6127c-1.25-1.7822-4.3452-10.901-4.6007-13.554-0.29388-3.0511-2.3478-6.1852-6.5922-10.059-4.673-4.265-7.9473-8.4642-11.078-14.207-2.1634-3.9688-2.4865-5.0011-2.791-8.9177-0.30779-3.9584-0.55586-4.7356-2.3331-7.3103-2.3388-3.3881-3.1716-4.6349-5.4951-8.2264-1.5485-2.3936-1.7609-3.203-2.034-7.7508-0.29778-4.9589-1.781-11.343-3.3212-14.296-0.42259-0.81012-0.76983-1.8515-0.77164-2.3142-0.0019-0.46268-0.60465-2.8504-1.3396-5.306-1.2683-4.2374-1.3364-5.1345-1.3364-17.622 0-9.4377-0.20899-13.982-0.73932-16.076-0.40663-1.6053-0.90323-4.7227-1.1036-6.9277-0.20033-2.205-0.9705-6.2942-1.7115-9.0872-0.86765-3.2703-1.4889-7.4568-1.7451-11.76-0.24224-4.0681-0.72313-7.4136-1.2294-8.5526-2.1676-4.8772-3.0058-10.27-3.0538-19.649l-0.03902-7.6218 2.9352 1.6565c1.6143 0.91107 3.6712 2.3441 4.5708 3.1844 0.89961 0.84036 2.1045 1.6767 2.6775 1.8586 1.2351 0.39202 1.3008 0.95296 0.29844 2.5492-0.59454 0.94682-0.79616 5.887-1.0068 24.669-0.2598 23.167-0.132 25.557 1.4743 27.563 0.91198 1.1395 3.8703 8.784 4.8196 12.454 0.4562 1.7638 0.80298 5.4498 0.80462 8.5526 0.0036 6.762 1.6822 18.477 3.5053 24.463 0.92348 3.0322 1.5205 6.6443 1.8218 11.023 0.40572 5.8956 0.64579 6.9604 2.5341 11.24 1.1473 2.5999 4.0201 7.7274 6.384 11.394 5.8172 9.0242 6.859 10.889 8.4625 15.149 1.4054 3.7337 3.1071 5.8946 12.87 16.343 7.0157 7.5082 11.993 14.68 11.993 17.28 0 2.1263 3.8914 7.3584 9.7544 13.115 3.308 3.248 7.0483 7.0229 8.3119 8.3886s3.0676 2.8099 4.009 3.2093c2.1733 0.92213 10.334 9.3541 9.0527 9.3541-0.3279 0-0.72768-0.21279-0.88842-0.47286z" fill="#69d37a" stroke="#1c7832" stroke-width="2.0203"/>
  </g>
  <g transform="matrix(.095499 0 0 .095499 117.04 182.43)">
   <g transform="matrix(1.1691,0,0,1.1691,-18.713,-32.553)">
    <path transform="scale(.26458)" d="m543 991.11c6.3848-4.8467 6.3566-7.4513-0.0806-7.4513-25.538 0-133.53-81.72-166.49-125.99-26.324-35.352-55.847-104.36-89.86-210.06-10.556-32.803-23.096-67.361-27.866-76.796-7.565-14.964-8.9672-21.535-10.976-51.441-1.8226-27.133-4.8652-43.226-14.585-77.143l-12.282-42.857 0.094-84.286c0.0649-58.221 1.2694-90.25 3.8949-103.57 2.0905-10.607 4.6197-19.269 5.6203-19.249 1.0006 0.0201 12.44 6.9281 25.42 15.351 12.981 8.4231 29.373 16.931 36.429 18.906 7.0552 1.9753 12.828 4.1311 12.828 4.7906 0 0.65953-2.1371 5.3139-4.7492 10.343-3.9135 7.5349-4.6893 17.439-4.4088 56.287 0.18723 25.929 1.6709 58.714 3.2971 72.857s2.9673 38.078 2.9802 53.189c0.0351 41.102 19.205 132.66 40.995 195.79 21.353 61.869 41.559 101.12 64.502 125.31 32.672 34.437 60.884 71.133 71.694 93.254 19.409 39.718 59.627 80.893 90.69 92.848 7.4565 2.8698 12.104 6.4534 12.041 9.2854-0.20714 9.3825-8.1694 38.014-12.343 44.384-3.9479 6.0252-15.59 10.364-27.198 10.137-4.1144-0.0806-4.0738-0.52289 0.35714-3.8864z" fill="#286b33" stroke="#1c7832" stroke-width="10.799"/>
   </g>
   <path d="m157.95 256.84c-0.16073-0.26007-1.3499-0.63147-2.6427-0.82533-2.5426-0.38129-3.521-1.2158-4.5885-3.9136-0.65586-1.6575-0.81858-1.7372-3.5439-1.7372-3.7329 0-7.0072-1.1414-12.248-4.2697-2.352-1.4039-4.8777-2.7358-5.6127-2.9598-0.73499-0.22407-1.6779-0.89285-2.0954-1.4862-0.41745-0.59333-2.1882-2.7838-3.9349-4.8678s-4.1413-5.7133-5.3212-8.0653-2.5671-4.8777-3.0826-5.6127c-1.25-1.7822-4.3452-10.901-4.6007-13.554-0.29388-3.0511-2.3478-6.1852-6.5922-10.059-4.673-4.265-7.9473-8.4642-11.078-14.207-2.1634-3.9688-2.4865-5.0011-2.791-8.9177-0.30779-3.9584-0.55586-4.7356-2.3331-7.3103-2.3388-3.3881-3.1716-4.6349-5.4951-8.2264-1.5485-2.3936-1.7609-3.203-2.034-7.7508-0.29778-4.9589-1.781-11.343-3.3212-14.296-0.42259-0.81012-0.76983-1.8515-0.77164-2.3142-0.0019-0.46268-0.60465-2.8504-1.3396-5.306-1.2683-4.2374-1.3364-5.1345-1.3364-17.622 0-9.4377-0.20899-13.982-0.73932-16.076-0.40663-1.6053-0.90323-4.7227-1.1036-6.9277-0.20033-2.205-0.9705-6.2942-1.7115-9.0872-0.86765-3.2703-1.4889-7.4568-1.7451-11.76-0.24224-4.0681-0.72313-7.4136-1.2294-8.5526-2.1676-4.8772-3.0058-10.27-3.0538-19.649l-0.03902-7.6218 2.9352 1.6565c1.6143 0.91107 3.6712 2.3441 4.5708 3.1844 0.89961 0.84036 2.1045 1.6767 2.6775 1.8586 1.2351 0.39202 1.3008 0.95296 0.29844 2.5492-0.59454 0.94682-0.79616 5.887-1.0068 24.669-0.2598 23.167-0.132 25.557 1.4743 27.563 0.91198 1.1395 3.8703 8.784 4.8196 12.454 0.4562 1.7638 0.80298 5.4498 0.80462 8.5526 0.0036 6.762 1.6822 18.477 3.5053 24.463 0.92348 3.0322 1.5205 6.6443 1.8218 11.023 0.40572 5.8956 0.64579 6.9604 2.5341 11.24 1.1473 2.5999 4.0201 7.7274 6.384 11.394 5.8172 9.0242 6.859 10.889 8.4625 15.149 1.4054 3.7337 3.1071 5.8946 12.87 16.343 7.0157 7.5082 11.993 14.68 11.993 17.28 0 2.1263 3.8914 7.3584 9.7544 13.115 3.308 3.248 7.0483 7.0229 8.3119 8.3886s3.0676 2.8099 4.009 3.2093c2.1733 0.92213 10.334 9.3541 9.0527 9.3541-0.3279 0-0.72768-0.21279-0.88842-0.47286z" fill="#69d37a" stroke="#1c7832" stroke-width="2.0203"/>
  </g>
  <g transform="matrix(.095499 0 0 .095499 141.73 166.44)">
   <g transform="matrix(1.1691,0,0,1.1691,-18.713,-32.553)">
    <path transform="scale(.26458)" d="m543 991.11c6.3848-4.8467 6.3566-7.4513-0.0806-7.4513-25.538 0-133.53-81.72-166.49-125.99-26.324-35.352-55.847-104.36-89.86-210.06-10.556-32.803-23.096-67.361-27.866-76.796-7.565-14.964-8.9672-21.535-10.976-51.441-1.8226-27.133-4.8652-43.226-14.585-77.143l-12.282-42.857 0.094-84.286c0.0649-58.221 1.2694-90.25 3.8949-103.57 2.0905-10.607 4.6197-19.269 5.6203-19.249 1.0006 0.0201 12.44 6.9281 25.42 15.351 12.981 8.4231 29.373 16.931 36.429 18.906 7.0552 1.9753 12.828 4.1311 12.828 4.7906 0 0.65953-2.1371 5.3139-4.7492 10.343-3.9135 7.5349-4.6893 17.439-4.4088 56.287 0.18723 25.929 1.6709 58.714 3.2971 72.857s2.9673 38.078 2.9802 53.189c0.0351 41.102 19.205 132.66 40.995 195.79 21.353 61.869 41.559 101.12 64.502 125.31 32.672 34.437 60.884 71.133 71.694 93.254 19.409 39.718 59.627 80.893 90.69 92.848 7.4565 2.8698 12.104 6.4534 12.041 9.2854-0.20714 9.3825-8.1694 38.014-12.343 44.384-3.9479 6.0252-15.59 10.364-27.198 10.137-4.1144-0.0806-4.0738-0.52289 0.35714-3.8864z" fill="#286b33" stroke="#1c7832" stroke-width="10.799"/>
   </g>
   <path d="m157.95 256.84c-0.16073-0.26007-1.3499-0.63147-2.6427-0.82533-2.5426-0.38129-3.521-1.2158-4.5885-3.9136-0.65586-1.6575-0.81858-1.7372-3.5439-1.7372-3.7329 0-7.0072-1.1414-12.248-4.2697-2.352-1.4039-4.8777-2.7358-5.6127-2.9598-0.73499-0.22407-1.6779-0.89285-2.0954-1.4862-0.41745-0.59333-2.1882-2.7838-3.9349-4.8678s-4.1413-5.7133-5.3212-8.0653-2.5671-4.8777-3.0826-5.6127c-1.25-1.7822-4.3452-10.901-4.6007-13.554-0.29388-3.0511-2.3478-6.1852-6.5922-10.059-4.673-4.265-7.9473-8.4642-11.078-14.207-2.1634-3.9688-2.4865-5.0011-2.791-8.9177-0.30779-3.9584-0.55586-4.7356-2.3331-7.3103-2.3388-3.3881-3.1716-4.6349-5.4951-8.2264-1.5485-2.3936-1.7609-3.203-2.034-7.7508-0.29778-4.9589-1.781-11.343-3.3212-14.296-0.42259-0.81012-0.76983-1.8515-0.77164-2.3142-0.0019-0.46268-0.60465-2.8504-1.3396-5.306-1.2683-4.2374-1.3364-5.1345-1.3364-17.622 0-9.4377-0.20899-13.982-0.73932-16.076-0.40663-1.6053-0.90323-4.7227-1.1036-6.9277-0.20033-2.205-0.9705-6.2942-1.7115-9.0872-0.86765-3.2703-1.4889-7.4568-1.7451-11.76-0.24224-4.0681-0.72313-7.4136-1.2294-8.5526-2.1676-4.8772-3.0058-10.27-3.0538-19.649l-0.03902-7.6218 2.9352 1.6565c1.6143 0.91107 3.6712 2.3441 4.5708 3.1844 0.89961 0.84036 2.1045 1.6767 2.6775 1.8586 1.2351 0.39202 1.3008 0.95296 0.29844 2.5492-0.59454 0.94682-0.79616 5.887-1.0068 24.669-0.2598 23.167-0.132 25.557 1.4743 27.563 0.91198 1.1395 3.8703 8.784 4.8196 12.454 0.4562 1.7638 0.80298 5.4498 0.80462 8.5526 0.0036 6.762 1.6822 18.477 3.5053 24.463 0.92348 3.0322 1.5205 6.6443 1.8218 11.023 0.40572 5.8956 0.64579 6.9604 2.5341 11.24 1.1473 2.5999 4.0201 7.7274 6.384 11.394 5.8172 9.0242 6.859 10.889 8.4625 15.149 1.4054 3.7337 3.1071 5.8946 12.87 16.343 7.0157 7.5082 11.993 14.68 11.993 17.28 0 2.1263 3.8914 7.3584 9.7544 13.115 3.308 3.248 7.0483 7.0229 8.3119 8.3886s3.0676 2.8099 4.009 3.2093c2.1733 0.92213 10.334 9.3541 9.0527 9.3541-0.3279 0-0.72768-0.21279-0.88842-0.47286z" fill="#69d37a" stroke="#1c7832" stroke-width="2.0203"/>
  </g>
 </g>
</svg>
