<?xml version="1.0" encoding="UTF-8"?>
<!-- Created with Inkscape (http://www.inkscape.org/) -->
<svg version="1.1" viewBox="0 49 210 210" xmlns="http://www.w3.org/2000/svg" xmlns:cc="http://creativecommons.org/ns#" xmlns:dc="http://purl.org/dc/elements/1.1/" xmlns:rdf="http://www.w3.org/1999/02/22-rdf-syntax-ns#">
 <metadata>
  <rdf:RDF>
   <cc:Work rdf:about="">
    <dc:format>image/svg+xml</dc:format>
    <dc:type rdf:resource="http://purl.org/dc/dcmitype/StillImage"/>
    <dc:title/>
   </cc:Work>
  </rdf:RDF>
 </metadata>
 <g>
  <circle cx="105.83" cy="154.12" r="103.57" fill="#d59251"/>
  <path d="m30.238 115.57v-3.7798c0-0.25199-0.11269-0.53058 0-0.75596 1.7298-3.4597-0.31332 3.2078 1.5119-2.2679 0.75012-2.2503-1.79 1.5511 0.75595-2.2678 0.19767-0.29651 0.59658-0.43722 0.75595-0.75595 0.11269-0.22538-0.17818-0.57778 0-0.75596 0.17818-0.17818 0.57777 0.17818 0.75595 0 0.35636-0.35636-0.35636-1.1555 0-1.5119 0.17818-0.17818 0.57777 0.17818 0.75595 0 0.45178-0.45178-0.81709-1.5119 0.75595-1.5119 0.25199 0-0.25198 0.75596 0 0.75596 0.35636 0 0.59658-0.43722 0.75596-0.75596 0.11269-0.22538-0.25198-0.75595 0-0.75595 0.25198 0-0.17818 0.57777 0 0.75595 0.17818 0.17818 0.64326 0.22539 0.75595 0 0.22538-0.45076-0.35636-1.1555 0-1.5119 0.25198-0.25198 0.50397 1.0079 0.75595 0.75595 0.35636-0.35636-0.22538-1.0611 0-1.5119 0.22538-0.45076 1.0611 0.22538 1.5119 0 0.31874-0.15937 0.43721-0.59658 0.75595-0.75595 0.22538-0.11269 0.57777 0.17818 0.75595 0 0.17818-0.17818-0.17818-0.57777 0-0.75595 0.35636-0.35636 1.1555 0.35636 1.5119 0 0.17818-0.17818-0.17818-0.57777 0-0.75595 0.17818-0.17818 0.57777 0.17818 0.75595 0 0.17818-0.17818-0.17818-0.57777 0-0.75595 0.17818-0.17818 0.57777 0.17818 0.75596 0 0.17818-0.17818-0.17818-0.57777 0-0.75595 1.5641-1.5641-0.06114 2.3901 1.5119-0.75595 0.11269-0.22538-0.17818-0.57777 0-0.75595 0.17818-0.17818 0.57777 0.17818 0.75595 0 0.17818-0.17818-0.17818-0.57777 0-0.75595 0.17818-0.17818 0.53057 0.11269 0.75595 0 0.31874-0.15937 0.43721-0.59658 0.75595-0.75595 0.22538-0.11269 0.75595 0.25198 0.75595 0 0-0.56345-1.1544-1.1135-0.75595-1.5119 0.39842-0.39842 0.96527 0.89261 1.5119 0.75595 0.69144-0.17286 0.87443-1.1932 1.5119-1.5119 0.45076-0.22538 1.0926 0.27955 1.5119 0 0.46882-0.31255 0.35753-1.1135 0.75595-1.5119 2.0159 0-0.25198 0.25198 0.75595-0.75595 0.17818-0.17818 0.57777 0.17818 0.75595 0 0.17818-0.17818-0.11269-0.53057 0-0.75596 0.15937-0.31874 0.50397-0.50397 0.75595-0.75595 0.50397-0.50397 0.91889-1.1166 1.5119-1.5119 0.46882-0.31255 1.2599-0.25199 1.5119-0.75596 0.33807-0.67614-0.33807-1.5917 0-2.2679 0.15937-0.31874 0.50397 1.0079 0.75595 0.75595 0.35636-0.35636-0.35636-1.1555 0-1.5119 0.25198-0.25198 0.50397 1.0079 0.75595 0.75595 0.35636-0.35636-0.35636-1.1555 0-1.5119 0.25198-0.25198 0.39959 0.75595 0.75595 0.75595 0.25198 0-0.11269-0.53057 0-0.75595 1.573-3.1461 0.30417 0.45178 0.75595 0 0.39842-0.39842 0.35753-1.1135 0.75595-1.5119 0.17818-0.17818-0.17818 0.57777 0 0.75595 0.17818 0.17818 0.57777 0.17818 0.75596 0 0.39842-0.39842 0.25198-1.2599 0.75595-1.5119 0.31874-0.15937 0.39959 0.75595 0.75595 0.75595 0.35636 0 0.43722-0.59658 0.75595-0.75595 0.22538-0.11269 0.53057 0.11269 0.75595 0 0.63747-0.31874 0.87443-1.1932 1.5119-1.5119 0.22538-0.11269 0.53057 0.11269 0.75595 0 0.31874-0.15937 0.43721-0.59658 0.75595-0.75595 0.22538-0.11269 0.57777 0.17818 0.75595 0 0.17818-0.17818-0.17818-0.57777 0-0.75595 0.17818-0.17818 0.53057 0.11269 0.75596 0 0.31874-0.15937 0.43721-0.59658 0.75595-0.75595 0.22538-0.11269 0.57777 0.17818 0.75595 0 0.17818-0.17818-0.17818-0.57777 0-0.75595 0.35636-0.35636 1.0611 0.22538 1.5119 0 0.31874-0.15937 0.75595-0.39959 0.75595-0.75595 0-0.35636-1.1123-0.75595-0.75595-0.75595 0.56345 0 0.97736 0.57777 1.5119 0.75595 0.23905 0.07968 0.50397 0 0.75595 0 0.25198 0 0.57777 0.17818 0.75595 0 0.17818-0.17818-0.22538-0.64326 0-0.75595 0.11828-0.05914 3.5684 0 3.7798 0h0.75595c0.50397 0 1.1555 0.35636 1.5119 0 0.25198-0.25198-1.1123-0.75595-0.75595-0.75595 0.56346 0 0.97737 0.57777 1.5119 0.75595 0.23905 0.07968 0.50397 0 0.75595 0s0.53057 0.11269 0.75595 0c0.31874-0.15937 0.75595-0.3996 0.75595-0.75595 0-0.35636-1.1123-0.75595-0.75595-0.75595 0.56345 0 0.97736 0.57777 1.5119 0.75595 0.23905 0.07968 0.75595-0.25198 0.75595 0 0 0.25198-0.98133 0.11269-0.75595 0 0.71272-0.35636 1.7044-0.1925 2.2679-0.75595 0.25199-0.25198-1.1123-0.75595-0.75595-0.75595 0.56345 0 0.97736 0.57777 1.5119 0.75595 0.4781 0.15937 1.0079 0 1.5119 0 0.25198 0 0.75595 0.25198 0.75595 0 0-0.35636-1.0079-0.50397-0.75595-0.75595 0.35636-0.35636 1.0611 0.22538 1.5119 0 0.22538-0.11269-0.25198-0.75595 0-0.75595 0.35636 0 0.43721 0.59658 0.75595 0.75595 0.22538 0.11269 0.50397 0 0.75595 0 0.25199 0 0.53057 0.11269 0.75595 0 0.31874-0.15937 0.75595-0.39959 0.75595-0.75595 0-0.35636-1.1123-0.75595-0.75595-0.75595 0.52429 0 1.4909 1.1444 2.2679 0.75595 1.8683-0.93413-0.26094-0.75595 1.5119-0.75595 0.25198 0 0.75595-0.25198 0.75595 0 0 0.25198-0.93413 0.17818-0.75595 0 0.39842-0.39842 1.1135-0.35753 1.5119-0.75595 0.17818-0.17818-0.93413 0.17818-0.75595 0 0.39842-0.39842 0.94845-0.75595 1.5119-0.75595 0.35635 0-0.75596 0.39959-0.75596 0.75595 0 0.25198 0.50397 0 0.75596 0h2.2678 0.75595c0.25199 0 0.75596-0.25198 0.75596 0s-1.0079 0-0.75596 0c0.50397 0 1.0612 0.22538 1.5119 0 0.22538-0.11269-0.17818-0.57777 0-0.75595 0.0243-0.02432 2.0845 0 2.2679 0 0.25198 0 0.75595-0.25198 0.75595 0s-1.0079 0-0.75595 0h1.5119-0.75595 4.5357 4.5357c0.50396 0 1.023-0.12223 1.5119 0 0.54663 0.13666 0.9594 0.64545 1.5119 0.75595 0.74127 0.14825 1.5119 0 2.2678 0h-0.75595c0.50397 0 1.0338-0.15937 1.5119 0 2.8024 0.93413-0.20875 0.75595 0 0.75595h1.5119c0.25198 0 0.57777-0.17818 0.75595 0 0.17818 0.17818-0.25198 0.75595 0 0.75595 1.0874 0 2.2679-1.8234 2.2679-0.75595 0 0.25198-1.0079 0-0.75595 0 0.50397 0 1.1555-0.35636 1.5119 0 0.25199 0.25198-1.0079 0.50397-0.75595 0.75595 0.35636 0.35636 1.0079 0 1.5119 0 0.25198 0 0.75595-0.25199 0.75595 0 0 0.25198-1.0079 0-0.75595 0h1.5119c0.25199 0 0.75595-0.25199 0.75595 0 0 0.25198-0.93413-0.17818-0.75595 0 0.39842 0.39842 0.94845 0.75595 1.5119 0.75595 1.0079 0-1.2599-1.7639 0.75596-0.75595 0.31873 0.15937 0.75595 0.39959 0.75595 0.75595 0 0.25198-1.0079 0-0.75595 0h1.5119c0.25199 0-0.75595-0.25198-0.75595 0 0 0.35636 0.39959 0.75595 0.75595 0.75595s0.75595-0.39959 0.75595-0.75595c0-0.25198-0.75595 0.25198-0.75595 0 0-0.56345 1.5119 0.1925 1.5119 0.75595 0 0.25198-0.75596 0.25198-0.75596 0s0.50397 0 0.75596 0c0.25198 0 0.75595-0.25198 0.75595 0 0 0.35636-0.39959 0.75595-0.75595 0.75595-0.25199 0-0.17818-0.57777 0-0.75595 0.17818-0.17818 0.53057-0.11269 0.75595 0 2.2942 1.1471 0.15059 0.60536 0 0.75595-0.17818 0.17818-0.25198 0.75595 0 0.75595 0.56345 0 1.1135-0.35753 1.5119-0.75595 0.17818-0.17818-0.75595-0.25198-0.75595 0 0 0.71272 2.0159 1.0079 1.5119 1.5119-0.25199 0.25198-1.1123-0.75595-0.75596-0.75595 0.56346 0 1.2599 0.25198 1.5119 0.75595 0.15937 0.31874-0.50397 1.0079-0.75595 0.75595-0.25199-0.25198 0.39959-0.75595 0.75595-0.75595s0.75595 0.39959 0.75595 0.75595c0 0.25198-0.57777-0.17818-0.75595 0-0.17818 0.17818-0.25198 0.75595 0 0.75595 0.35636 0 0.39959-0.75595 0.75595-0.75595 0.25198 0-0.11269 0.53057 0 0.75595 0.15937 0.31874 1.0079 0.50397 0.75595 0.75595-0.25198 0.25198-1.0079-1.0079-0.75595-0.75595 4.9557 4.9557-2.6878-2.6878 2.2679 2.2679 0.25198 0.25198-1.0079-0.50397-0.75595-0.75595 0.25198-0.25198 0.43721 0.59658 0.75595 0.75595 0.22538 0.11269 0.75595-0.25198 0.75595 0 0 0.35636-0.50397 1.0079-0.75595 0.75595-0.25199-0.25198 0.39959-0.75595 0.75595-0.75595s0.75595 0.3996 0.75595 0.75595c0 0.35636-0.50397 1.0079-0.75595 0.75595s0.39959-0.75595 0.75595-0.75595 0.59659 0.43721 0.75596 0.75595c0.11269 0.22538-0.25199 0.75595 0 0.75595 2.5072 0 0-1.4165 0-0.75595 0 0.71272 2.0159 1.0079 1.5119 1.5119-0.25198 0.25198-1.1123-0.75595-0.75595-0.75595 0.56345 0 1.2599 0.25198 1.5119 0.75595 0.15937 0.31874-0.50396 1.0079-0.75595 0.75595-0.25198-0.25198 0.39959-0.75595 0.75595-0.75595s0.75595 0.39959 0.75595 0.75595c0 0.35636-1.1123 0.75595-0.75595 0.75595 0.56346 0 0.94845-0.75595 1.5119-0.75595 0.35636 0-0.59659 0.43721-0.75596 0.75595-0.11269 0.22538-0.25198 0.75595 0 0.75595 0.56346 0 0.94846-0.75595 1.5119-0.75595 0.35636 0-0.91532 0.43722-0.75595 0.75595 0.25198 0.50397 0.94845 0.75595 1.5119 0.75595 0.35636 0-1.0079-1.0079-0.75595-0.75595 0.50397 0.50397 1.0079 1.0079 1.5119 1.5119 0.25199 0.25198-0.39959-0.75595-0.75595-0.75595-0.49401 0 0.26194 1.5119 0.75595 1.5119 1.573 0 0.66054-1.4165 0-0.75595-0.45178 0.45178 0.46074 1.5119 0.75596 1.5119 0.25198 0-0.25199-0.75596 0-0.75596 0.35635 0 0.75595 0.39959 0.75595 0.75596 0 0.35636-0.50397 1.0079-0.75595 0.75595-0.25199-0.25198 0.39959-0.75595 0.75595-0.75595s0.75595 0.39959 0.75595 0.75595c0 0.35636-0.50397 1.0079-0.75595 0.75595s0.39959-0.75595 0.75595-0.75595 0.75595 0.39959 0.75595 0.75595c0 0.25198-0.75595-0.25198-0.75595 0 0 0.35636 0.39959 0.75595 0.75595 0.75595s0.50397-1.0079 0.75596-0.75595c0.25198 0.25198-1.0079 0.50397-0.75596 0.75595 0.35636 0.35636 1.0079 0 1.5119 0h-0.75595c5.3618 0 0.44282-0.53454 3.0238 0.75596 1.5119 0.75595 0-1.5119 2.2678 0 0.46882 0.31255 0.25199 1.2599 0.75596 1.5119 0.31873 0.15937 0.41788-0.86864 0.75595-0.75595 1.3523 0.45076 1.6715 2.573 3.0238 3.0238 0.33807 0.11269 0.75595-1.1123 0.75595-0.75595 0 0.56345-1.1544 1.1135-0.75595 1.5119 0.39842 0.39842 0.94845-0.75595 1.5119-0.75595 0.35636 0-0.91532 0.43722-0.75595 0.75595 0.25198 0.50397 0.94845 0.75595 1.5119 0.75595 0.35636 0-1.1123-0.75595-0.75595-0.75595 0.56346 0 1.2599 0.25198 1.5119 0.75595 0.15936 0.31874-1.1123 0.75595-0.75596 0.75595 0.56346 0 0.94846-0.75595 1.5119-0.75595 0.35636 0-0.75595 0.39959-0.75595 0.75595 0 0.25198 0.57777-0.17818 0.75595 0 0.17818 0.17818 0.25198 0.75595 0 0.75595s-0.22538-0.64326 0-0.75595c0.45076-0.22538 1.1555-0.35636 1.5119 0 0.25199 0.25198-0.59658 0.43721-0.75595 0.75595-0.11269 0.22538-0.25198 0.75595 0 0.75595 0.56346 0 1.1135-0.35753 1.5119-0.75595 0.33598-0.33598-2.0999 0.08399-0.75596 0.75595 0.45077 0.22538 1.1556-0.35636 1.5119 0 0.25198 0.25198-0.39959 0.75595-0.75595 0.75595-0.25199 0-0.25199-0.75595 0-0.75595 0.56345 0 1.2599 0.25198 1.5119 0.75595-0.68215 2.7592-0.93413-0.17818-0.75595 0 0.39842 0.39842 0.25198 1.2599 0.75595 1.5119 0.31874 0.15937 0.75595-1.1123 0.75595-0.75595 0 0.56345-1.1544 1.1135-0.75595 1.5119 0.39842 0.39842 1.1135-0.35753 1.5119-0.75595 0.17817-0.17818-0.64327-0.22538-0.75596 0-0.22538 0.45076-0.35636 1.1555 0 1.5119 0.25199 0.25198 0.50397-1.0079 0.75596-0.75595 0.35636 0.35636-0.35636 1.1555 0 1.5119 1.3601 1.3601 0.81112-2.3782 0-0.75595-0.22539 0.45076-0.35636 1.1555 0 1.5119s1.1555-0.35636 1.5119 0c0.25198 0.25199-0.39959 0.75595-0.75595 0.75595-0.25199 0 0-1.0079 0-0.75595v1.5119c0 1.0079-0.25199-2.7718 0.75595-0.75596 0.22538 0.45077 0 1.0079 0 1.5119 0 0.25198-0.17818-0.93413 0-0.75595 0.39842 0.39842 0.75595 0.94845 0.75595 1.5119 0 0.35636-0.75595-1.1123-0.75595-0.75595 0 0.56345 0.35753 1.1135 0.75595 1.5119 0.17818 0.17818-0.17818-0.93413 0-0.75595 0.39842 0.39842 0.75596 0.94845 0.75596 1.5119 0 0.35636-0.75596-1.1123-0.75596-0.75596 0 0.56346 0.35753 1.1135 0.75596 1.5119 0.17817 0.17818-0.17819-0.57777 0-0.75595 0.17817-0.17818 0.75595-0.25199 0.75595 0 0 0.35636-0.59659 0.43721-0.75595 0.75595-0.1127 0.22538 0.25198 0.75595 0 0.75595-0.25199 0-0.25199-0.75595 0-0.75595 0.56345 0 1.2599 0.25198 1.5119 0.75595 0.15937 0.31874-0.39959 0.75595-0.75595 0.75595-0.25199 0-0.25199-0.75595 0-0.75595 0.35636 0 0.50396 0.50397 0.75595 0.75595 0.25199 0.25199 0.75595 0.3996 0.75595 0.75595 0 0.35636-0.39959 0.75596-0.75595 0.75596-0.25199 0-0.22538-0.86864 0-0.75596 0.63748 0.31874 1.1932 0.87443 1.5119 1.5119 0.1127 0.22538-0.75595 0.25198-0.75595 0s0.57777-0.17818 0.75595 0c0.39843 0.39842 0.75596 0.94845 0.75596 1.5119 0 0.35636-0.50397-0.50397-0.75596-0.75596 0.50397 0.50397 1.1932 0.87443 1.5119 1.5119 0.11269 0.22538-0.75595-0.25199-0.75595 0 0 0.56345 0.4434 1.0431 0.75595 1.5119 0.19767 0.29651 0.75595 0.3996 0.75595 0.75596 0 1.0079-1.7639-1.2599-0.75595 0.75595 0.21002 0.42003 1.5119 1.2682 1.5119 1.5119 0 0.35636-0.64326 0.41788-0.75595 0.75595-0.15937 0.47811 0 1.0079 0 1.5119v-0.75595 6.8036c0 0.75595-0.41933 1.6389 0 2.2679 0.27955 0.41932 1.0079 0 1.5119 0-0.25199 0.75595-1.0079 1.5119-0.75596 2.2678 0.15937 0.47811 1.2865-0.45076 1.5119 0 0.25198 0.50397-0.57777 0.97737-0.75595 1.5119-0.0797 0.23905 0 0.50396 0 0.75595 0 0.50397-0.35636 1.1556 0 1.5119 0.35635 0.35636 1.0079 0 1.5119 0 0.25198 0-0.64326-0.22538-0.75595 0-0.22538 0.45077-0.27955 1.0926 0 1.5119 0.31255 0.46882 1.2599 0.25198 1.5119 0.75595 0.15937 0.31874-1.0079 0.50397-0.75595 0.75595 0.35636 0.35636 1.2865-0.45076 1.5119 0 0.25198 0.50397-0.57778 0.97737-0.75596 1.5119-0.41997 1.2599 0.58797 0.75595 1.5119 0.75595 0.25198 0-0.64326-0.22538-0.75595 0-0.22539 0.45076-0.15937 1.0338 0 1.5119 0.11269 0.33808 0.39959 0.75596 0.75595 0.75596 0.25198 0-0.25199-0.75596 0-0.75596 0.35636 0 0.75595 0.3996 0.75595 0.75596s-0.39959 0.75595-0.75595 0.75595c-0.25199 0 0-1.0079 0-0.75595v1.5119c0 0.25199-0.17818-0.57777 0-0.75595s0.57777-0.17818 0.75595 0c0.39842 0.39842 0.75595 0.94845 0.75595 1.5119 0 0.35636-0.39959-0.75596-0.75595-0.75596-0.25198 0 0 0.50397 0 0.75596v1.5119-0.75595c0 2.6548-0.35636 1.3121 0.75595 0.75595 0.22538-0.11269 0.75596-0.25198 0.75596 0 0 0.56345-0.35754 1.1135-0.75596 1.5119-0.17818 0.17817 0-1.0079 0-0.75596 0 3.4413-0.35636 0.75596 0.75596 0.75596 0.35636 0 0.75595 0.39959 0.75595 0.75595 0 0.25198-0.57778-0.17818-0.75595 0-0.17819 0.17818 0 0.50396 0 0.75595 0 0.25198-0.17819 0.57777 0 0.75595 0.17817 0.17818 0.64326-0.22538 0.75595 0 0.22538 0.45077-0.35636 1.1556 0 1.5119 0.25198 0.25198 0.75595-0.3996 0.75595-0.75596 0-0.25198-0.64326-0.22538-0.75595 0-0.22539 0.45077 0 1.0079 0 1.5119v-0.75595 2.2678-0.75595 1.5119c0 0.25198-0.17818-0.93414 0-0.75596 0.98133 0.98134 0.75595 1.8262 0.75595 3.0238v-0.75595 13.607-0.75595 1.5119-0.75595 6.0476-0.75595 1.5119 3.0238c0 0.25199-0.25198-0.75595 0-0.75595s0 0.50397 0 0.75595v0.75596c0 0.50396 0.35636 1.1555 0 1.5119-0.25198 0.25199-0.50397-1.0079-0.75595-0.75595-0.35636 0.35636 0 1.0079 0 1.5119v1.5119-0.75595c0 0.50396 0.35636 1.1555 0 1.5119-0.25199 0.25199-0.50397-1.0079-0.75595-0.75595-0.35636 0.35636 0.35636 1.1555 0 1.5119-0.25199 0.25199-1.0079-0.50396-0.75596-0.75595 0.25199-0.25198 0.75596 0.39959 0.75596 0.75595 0 0.56346-0.44341 1.0431-0.75596 1.5119-0.19767 0.29651-0.75595 0.39959-0.75595 0.75595 0 0.25198 0.57777-0.17818 0.75595 0s0.17818 0.57777 0 0.75595-0.57777-0.17818-0.75595 0c-0.35636 0.35636 0.35636 1.1556 0 1.5119-0.17818 0.17818-0.75595-0.25199-0.75595 0 0 0.56345 0.75595 0.94845 0.75595 1.5119 0 0.25199-0.53057-0.11269-0.75595 0-0.31874 0.15937-0.75595 0.39959-0.75595 0.75596 0 0.35635 0.91532 0.43721 0.75595 0.75595-0.25199 0.50396-1.2599 0.25198-1.5119 0.75595-0.15937 0.31874 0.91532 0.43721 0.75596 0.75595-0.25199 0.50397-1.2599 0.25198-1.5119 0.75595-0.15937 0.31874 0.91532 0.43722 0.75595 0.75596-0.25198 0.50396-1.0431 0.4434-1.5119 0.75595-2.519 1.6793 2.2374 0.0152-0.75595 1.5119-0.22538 0.1127-0.75596-0.25198-0.75596 0 0 0.56346 0.75596 0.94846 0.75596 1.5119 0 0.35636-0.43722-0.91532-0.75596-0.75595-0.50396 0.25198-0.75595 0.94845-0.75595 1.5119 0 0.35636 1.0079-1.0079 0.75595-0.75595-0.50396 0.50397-1.0079 1.0079-1.5119 1.5119-0.25199 0.25199 0.75595-1.1123 0.75595-0.75595 0 0.56346-0.25198 1.2599-0.75595 1.5119-0.31874 0.15937-0.75595-0.39959-0.75595-0.75595 0-0.25198 0.75595-0.25198 0.75595 0 0 0.35636-0.59658 0.43722-0.75595 0.75595-0.11269 0.22539 0.17818 0.57778 0 0.75596s-0.75596 0.25198-0.75596 0c0-0.25199 0.75596-0.25199 0.75596 0 0 0.35636-0.50397 0.50397-0.75596 0.75595-0.25198 0.25198-0.75595 0.39959-0.75595 0.75595 0 0.25199 0.75595-0.25198 0.75595 0 0 0.25199-0.57777-0.17818-0.75595 0s0.17818 0.57778 0 0.75595c-0.17818 0.17818-0.75595 0.25199-0.75595 0 0-0.25198 0.75595-0.25198 0.75595 0 0 0.56346-1.5119 1.3194-1.5119 0.75596 0-0.25199 0.75595-0.25199 0.75595 0 0 0.35636-0.43721 0.59658-0.75595 0.75595-0.22538 0.11269-0.75595-0.25198-0.75595 0 0 0.35636 0.75595 0.39959 0.75595 0.75595 0 0.50397-1.1556-0.35636-1.5119 0-0.17818 0.17818 0.11269 0.53057 0 0.75596-0.15937 0.31873-0.75595 0.39959-0.75595 0.75595 0 0.25198 0.93413-0.17818 0.75595 0-0.39842 0.39842-1.2599 0.25198-1.5119 0.75595-0.15937 0.31874 1.0079 0.50397 0.75595 0.75595-0.35636 0.35636-1.1555-0.35636-1.5119 0s0.22538 1.0611 0 1.5119c-0.1127 0.22538-0.53058-0.1127-0.75596 0-0.31873 0.15937-0.50397 0.50396-0.75595 0.75595-0.25198 0.25198-0.59658 0.43721-0.75595 0.75595-0.11269 0.22538 0.17818 0.57777 0 0.75595s-0.53057-0.11269-0.75595 0c-1.8683 0.93414 0.26093 0.75596-1.5119 0.75596-0.25198 0-0.75595-0.25199-0.75595 0 0 0.56345 0.75595 0.94845 0.75595 1.5119 0 0.35636-0.43721-0.59658-0.75595-0.75595-0.22538-0.11269-0.50397 0-0.75595 0-0.25199 0-0.57778-0.17818-0.75596 0-0.17817 0.17818 0.17818 0.57777 0 0.75595-0.35636 0.35636-1.5119-0.50397-1.5119 0 0 0.35636 0.75595 0.39959 0.75595 0.75595 0 0.25199-0.50397 0-0.75595 0-0.25199 0-0.75595 0.25199-0.75595 0 0-0.25198 1.0079 0 0.75595 0h-1.5119c-0.25198 0 0.93414-0.17818 0.75596 0-0.39842 0.39843-1.1135 0.35753-1.5119 0.75595-0.17818 0.17819 0.75595-0.25198 0.75595 0 0 0.25199-0.50396 0-0.75595 0-0.25198 0-0.75595 0.25199-0.75595 0 0-0.25198 0.93413-0.17817 0.75595 0-0.39842 0.39843-0.97736 0.57778-1.5119 0.75596-0.23906 0.0797-0.57778-0.17818-0.75595 0-0.17819 0.17818 0.17817 0.57777 0 0.75595-0.17819 0.17818-0.57778-0.17818-0.75596 0s0.17818 0.57777 0 0.75595-0.53057-0.11269-0.75595 0c-0.20071 0.10036-2.1675 2.0672-2.2679 2.2679-0.11269 0.22538 0.17818 0.57777 0 0.75595s-0.57777-0.17818-0.75595 0 0.17818 0.57777 0 0.75596c-0.17818 0.17817-0.57777-0.17819-0.75595 0-0.17818 0.17817 0.17818 0.57777 0 0.75595s-0.53057-0.11269-0.75595 0c-0.31874 0.15937-0.43722 0.59658-0.75596 0.75595-0.22538 0.11269-0.57777-0.17818-0.75595 0s0.17818 0.57777 0 0.75595-0.53057-0.11269-0.75595 0c-0.31874 0.15937-0.43722 0.59659-0.75595 0.75595-0.22538 0.11269-0.57778-0.17818-0.75596 0-0.17817 0.17818 0.17818 0.57777 0 0.75596-0.35636 0.35636-1.1555-0.35636-1.5119 0-0.17818 0.17817 0.17818 0.57777 0 0.75595s-0.53057-0.11269-0.75595 0c-0.31874 0.15937-0.43722 0.59658-0.75596 0.75595-0.45076 0.22538-1.1555-0.35636-1.5119 0-0.17818 0.17818 0.17818 0.57777 0 0.75595s-0.53057-0.11269-0.75595 0c-0.31874 0.15937-0.43722 0.59659-0.75595 0.75596-0.22539 0.11269-0.57778-0.17818-0.75596 0s0.17818 0.57777 0 0.75595-0.50397 0-0.75595 0-0.75595 0.25198-0.75595 0c0-0.25199 0.93413-0.17818 0.75595 0-0.39842 0.39842-1.1135 0.35753-1.5119 0.75595-0.17818 0.17818 1.0079 0 0.75595 0h-1.5119 0.75596-1.5119c-0.25198 0 0.57777-0.17818 0.75595 0s0.22538 0.64326 0 0.75595c-4.2837 2.1419-0.75595-1.0709-0.75595 0 0 0.25199-0.50397 0-0.75595 0h-1.5119c-1.0079 0 2.7718-0.25198 0.75596 0.75595-0.45077 0.22539-1.0079 0-1.5119 0-0.25198 0 0.75595-0.25198 0.75595 0 0 0.25199-0.53057-0.11269-0.75595 0-0.31874 0.15937-0.43721 0.59659-0.75595 0.75596-0.22538 0.11269-0.53057-0.11269-0.75595 0-0.31874 0.15936-0.41788 0.64326-0.75596 0.75595-0.4781 0.15937-1.0611-0.22538-1.5119 0-0.22538 0.11269 0.17818 0.57777 0 0.75595-2.9503 2.9503-0.40598-0.17498-2.2679 0.75595-0.31873 0.15937-0.41788 0.64327-0.75595 0.75596-0.47811 0.15937-1.0611-0.22539-1.5119 0-0.22539 0.11269 0.22538 0.64326 0 0.75595-0.45077 0.22538-1.0338-0.15937-1.5119 0-0.33807 0.11269-0.43721 0.59658-0.75595 0.75595-0.22538 0.11269-0.57777-0.17818-0.75595 0s0.25198 0.75595 0 0.75595c-0.56346 0-0.94846-0.75595-1.5119-0.75595-0.25198 0 0.17818 0.57777 0 0.75595s-0.50397 0-0.75595 0h-0.75595-3.0238-0.75596c-0.25198 0-0.53057-0.11269-0.75595 0-0.31874 0.15937-0.43721 0.59659-0.75595 0.75596-0.23006 0.11503-1.9274 0-2.2679 0h-4.5357-9.8274-13.607 0.75595-1.5119c-0.25198 0-0.53057 0.11269-0.75595 0-2.2246-1.1123 1.1735-0.75596-2.2679-0.75596-0.25198 0 0.75595 0.25199 0.75595 0 0-0.35636-0.43722-0.59658-0.75595-0.75595-0.22538-0.11269-0.5169 0.0797-0.75595 0-0.53454-0.17818-0.97737-0.57777-1.5119-0.75595-0.23905-0.0797-0.57777 0.17818-0.75595 0-0.17818-0.17818 0.22538-0.64326 0-0.75595-0.45076-0.22539-1.1555 0.35636-1.5119 0-0.25198-0.25199 1.0079-0.50397 0.75595-0.75596-0.35636-0.35636-1.0079 0-1.5119 0-0.25198 0 0.57777 0.17818 0.75595 0s0.17818-0.57777 0-0.75595c-0.39842-0.39842-0.94845-0.75595-1.5119-0.75595-0.25198 0 0.17818 0.57777 0 0.75595-0.17818 0.17818-0.50397 0-0.75595 0h-3.0238-0.75595c-0.25198 0-0.53057 0.11269-0.75595 0-0.42003-0.21001-1.2682-1.5119-1.5119-1.5119-0.35636 0-0.50397 1.0079-0.75595 0.75595-0.25199-0.25198 1.0079-0.50397 0.75595-0.75595-0.35636-0.35636-1.0611 0.22538-1.5119 0-0.22538-0.11269 0.17818-0.57777 0-0.75596-0.17818-0.17817-0.57777 0.17819-0.75595 0-1.2599-1.2599 2.7718-0.75595-1.5119-0.75595-0.25198 0 0.93413 0.17818 0.75595 0-0.39842-0.39842-1.1994-0.28713-1.5119-0.75595-0.27955-0.41933 0.45076-1.2865 0-1.5119-0.50397-0.25199-1.1135 1.1544-1.5119 0.75595-0.39842-0.39842 1.0079-1.0079 0.75595-1.5119-0.22538-0.45076-1.0611 0.22538-1.5119 0-0.22538-0.11269 0-0.50396 0-0.75595-0.50397 0-1.0338 0.15937-1.5119 0-1.9816-0.66053 0.4734-1.0385-0.75596-2.2679-0.25198-0.25198-0.50397 1.0079-0.75595 0.75596-0.35636-0.35636 0.35636-1.1556 0-1.5119-0.25198-0.25198-0.50397 1.0079-0.75595 0.75595-0.35636-0.35636 0.35636-1.1555 0-1.5119-0.25198-0.25199-0.50397 1.0079-0.75595 0.75595-0.35636-0.35636 0.45076-1.2865 0-1.5119-0.50397-0.25199-0.94845 0.75595-1.5119 0.75595-0.35636 0 1.0079-0.50397 0.75595-0.75595-4.2837 0-0.25198 0.50396-1.5119-0.75595-0.35636-0.35637-1.5119 0.50396-1.5119 0 0-0.35637 0.75595-0.3996 0.75595-0.75596 0-0.50397-1.5119 0.50397-1.5119 0 0-0.25198 0.50397 0 0.75595 0-0.50397-0.25198-1.2599-0.25198-1.5119-0.75595-0.15937-0.31874 1.1123-0.75595 0.75595-0.75595-0.56345 0-0.94845 0.75595-1.5119 0.75595-0.25198 0 0.22538-0.64326 0-0.75595-0.45076-0.22538-1.023 0.12223-1.5119 0-4.6914-1.1729 2.2788-0.75596-2.2679-0.75596-1.0079 0 2.7718 0.25199 0.75595-0.75595-0.45076-0.22538-1.0079 0-1.5119 0h0.75595c-0.50397 0-1.1555 0.35636-1.5119 0-0.25198-0.25198 1.0079-0.50397 0.75595-0.75595-0.35636-0.35636-1.0079 0-1.5119 0-0.25198 0 0.86864 0.22538 0.75595 0-0.31874-0.63748-1.0079-1.0079-1.5119-1.5119-0.25198-0.25198 1.0079 1.0079 0.75595 0.75596-0.50397-0.50397-1.0079-1.0079-1.5119-1.5119-0.25198-0.25198 1.0079 1.0079 0.75595 0.75595-0.50397-0.50396-1.0079-1.0079-1.5119-1.5119-0.25198-0.25198 0.75595 1.1123 0.75595 0.75595 0-0.56345-0.35753-1.1135-0.75595-1.5119-0.17818-0.17818 0.17818 0.57777 0 0.75595-0.17818 0.17818-0.64326 0.22538-0.75595 0-0.22538-0.45076 0-1.0079 0-1.5119 0-0.25199 0.17818 0.57777 0 0.75595-0.17818 0.17818-0.75595 0.25198-0.75595 0 0-0.56345 0.35753-1.1135 0.75595-1.5119 0.33598-0.33597-0.08399 2.0999-0.75595 0.75596-0.22538-0.45077 0-1.0079 0-1.5119 0-0.25198 0.17818 0.57777 0 0.75595-0.17818 0.17818-0.57777 0.17818-0.75596 0-0.39842-0.39842-0.75595-0.94845-0.75595-1.5119 0-0.35636 0.75595 0.39959 0.75595 0.75595 0 0.56345-1.5119-0.1925-1.5119-0.75595 0-0.35636 1.1123-0.75595 0.75595-0.75595-0.56345 0-1.1135 0.35753-1.5119 0.75595-0.17818 0.17818 0.86864 0.22538 0.75595 0-0.31874-0.63748-1.0079-1.0079-1.5119-1.5119-0.25198-0.25198 1.0079 1.0079 0.75595 0.75596-0.50397-0.50397-0.87443-1.1932-1.5119-1.5119-0.22538-0.11269 0 1.0079 0 0.75595 0-0.50397 0.35636-1.1555 0-1.5119-0.25198-0.25199-0.43722 0.59658-0.75595 0.75595-0.22538 0.11269-0.75595 0.25198-0.75595 0s0.57777 0.17818 0.75595 0c0.17818-0.17818 0.17818-0.57777 0-0.75595-0.17818-0.17818-0.57777 0.17818-0.75595 0-1.7728-1.7728 2.6854 0-0.75595 0-0.25198 0 0.11269-0.53057 0-0.75595-0.15937-0.31874-0.39959-0.75595-0.75595-0.75595-0.35636 0-0.50397 1.0079-0.75596 0.75595-0.56345-0.56346-0.50397-1.5119-0.75595-2.2679-0.25198 0.25198-0.50397 1.0079-0.75595 0.75595-2.746-2.746 1.1987-2.2679-2.2679-2.2679-0.25198 0 0.86864 0.22539 0.75595 0-0.31874-0.63747-1.2865-0.83576-1.5119-1.5119-0.11269-0.33807 1.0079-0.50397 0.75595-0.75595-0.35636-0.35636-1.1555 0.35636-1.5119 0-0.25198-0.25199 1.0079-0.50397 0.75595-0.75596-0.35636-0.35635-1.3525 0.47811-1.5119 0-0.25198-0.75595 0.75595-1.471 0.75595-2.2678 0-0.35636-0.43721 0.91532-0.75595 0.75595-1.5469-0.77344-0.25011-2.0121-0.75595-3.0238-0.22538-0.45076-1.5119 0.50397-1.5119 0 0-0.79684 1.0079-1.5119 0.75595-2.2679-0.15937-0.4781-1.0079 0-1.5119 0-0.25198 0 0.75595 0.25199 0.75595 0 0-0.79684-0.1925-1.7044-0.75595-2.2678-0.25198-0.25199-0.75595 1.1123-0.75595 0.75595 0-0.56346 1.0079-1.0079 0.75595-1.5119-0.22538-0.45077-1.0079 0-1.5119 0-0.25198 0 0.75595 0.25198 0.75595 0 0-0.56346-0.35753-1.1135-0.75595-1.5119-1.2599-1.2599-0.75595 2.7718-0.75595-1.5119 0-0.25198 0.17818 0.93414 0 0.75596-0.39842-0.39842-0.75595-0.94845-0.75595-1.5119 0-0.35636 0.50397 1.0079 0.75595 0.75595 0.35636-0.35636 0.35636-1.1555 0-1.5119-0.25198-0.25198-0.50397 1.0079-0.75595 0.75595-0.35636-0.35636 0-1.0079 0-1.5119v0.75595-1.5119 0.75596-2.2679c0-0.25198 0.25198 0.75595 0 0.75595-0.35636 0-0.75595-0.39959-0.75595-0.75595s0.39959-0.75595 0.75595-0.75595c0.50397 0-0.25198 1.7639-0.75595 0.75595-0.22538-0.45076 0-1.0079 0-1.5119v0.75595c0-0.50397 0.35636-1.1556 0-1.5119-0.25198-0.25198-0.75595 0.3996-0.75595 0.75596 0 0.25198 0.57777 0.17818 0.75595 0 0.11117-0.11117-0.08894-2.2679 0-2.2679 0.25198 0 0 1.0079 0 0.75595v-2.2679c0-0.25198 0.25198 0.75596 0 0.75596s0-0.50397 0-0.75596c0-0.25198-0.25198-0.75595 0-0.75595s0.25198 0.75595 0 0.75595 0-0.50397 0-0.75595v-0.75595c0-0.25198-0.25198-0.75595 0-0.75595s0 1.0079 0 0.75595v-1.5119c0-0.25199 0.17818 0.93413 0 0.75595-0.39842-0.39843-0.35753-1.1135-0.75595-1.5119-0.17818-0.17818 0 1.0079 0 0.75596v-1.5119 0.75595-1.5119c0-0.25199 0.11269-0.53057 0-0.75596-0.15937-0.31873-0.75595-0.39959-0.75595-0.75595s0.50397-1.0079 0.75595-0.75595-0.50397 1.0079-0.75595 0.75595c-0.35636-0.35636 0.15937-1.0338 0-1.5119-0.11269-0.33807-0.75595-0.3996-0.75595-0.75596 0-0.29521 1.4165-0.85137 0.75595-1.5119-0.39842-0.39842-1.3752-0.20932-1.5119-0.75595-0.19326-0.77305 0.75595-1.471 0.75595-2.2679 0-0.35636-0.59658-0.43721-0.75595-0.75595-0.11269-0.22538 0.07968-0.5169 0-0.75595-0.17818-0.53454-0.75595-0.94846-0.75595-1.5119 0-0.35636 0.75595-0.39959 0.75595-0.75595 0-0.25198-0.64326 0.22538-0.75595 0-0.22538-0.45076 0-1.0079 0-1.5119 0-0.25199 0.17818 0.93413 0 0.75595-0.39842-0.39843-0.75595-0.94845-0.75595-1.5119 0-0.35636 0.50397 1.0079 0.75595 0.75596 0.35636-0.35637 0-1.0079 0-1.5119 0-0.25198 0.25198 0.75595 0 0.75595s0-0.50397 0-0.75595v-0.75595-1.5119c0-0.25198-0.25198-0.75595 0-0.75595s0 1.0079 0 0.75595v-1.5119c0-0.25199-0.25198-0.75595 0-0.75595s0.25198 0.75595 0 0.75595c-0.56345 0 0.1925-1.5119 0.75595-1.5119 0.25198 0-0.25198 0.75596 0 0.75596 0.35636 0 0.75595-0.3996 0.75595-0.75596s-0.39959-0.75595-0.75595-0.75595c-0.25198 0 0 1.0079 0 0.75595v-1.5119c0-1.2599-0.25198-0.75595 1.5119-0.75595 0.25198 0-0.64326 0.22538-0.75595 0-0.22538-0.45077 0-1.0079 0-1.5119 0-0.25198-0.25198-0.75595 0-0.75595s0 1.0079 0 0.75595v-1.5119c0-0.25199 0.25198 0.75595 0 0.75595s0-0.50397 0-0.75595v-0.75595c0-0.25199-0.25198-0.75596 0-0.75596 0.57547 0 1.5119 2.8999 1.5119-0.75595 0-3.1282-2.329 2.4513-0.75595-2.2679 0.11269-0.33807 0.39959-0.75595 0.75595-0.75595 0.25198 0-0.17818 0.93413 0 0.75595 0.39842-0.39842 0.75595-0.94845 0.75595-1.5119 0-0.35636-0.39959-0.75596-0.75595-0.75596-0.25198 0 0 1.0079 0 0.75596v-2.2679c0-0.25198-0.25198-0.75595 0-0.75595s0.25198 0.75595 0 0.75595c-0.56345 0 0.1925-1.5119 0.75595-1.5119 0.35636 0 0.75595 1.1123 0.75595 0.75595 0-0.56345-0.35753-1.1135-0.75595-1.5119-0.17818-0.17818 0 1.0079 0 0.75596v-1.5119c0-0.25198 0.25198 0.75595 0 0.75595s-0.17818-0.57777 0-0.75595c0.17818-0.17818 0.57777 0.17818 0.75595 0 0.17818-0.17818-0.25198-0.75595 0-0.75595 0.25198 0 0 1.0079 0 0.75595 0-0.50397-0.35636-1.1555 0-1.5119 0.25198-0.25199 0.75595 1.1123 0.75595 0.75595 0-0.56345-0.35753-1.1135-0.75595-1.5119-0.17818-0.17818 0 1.0079 0 0.75596v-1.5119-0.75595c0-0.25199-0.25198-0.75595 0-0.75595 3.5457 0-2.6854 2.6854 0.75595-0.75595 0.25198-0.25199 0.75595 1.1123 0.75595 0.75595 0-0.56346-0.35753-1.1135-0.75595-1.5119-0.17818-0.17818 0 1.0079 0 0.75596v-1.5119 0.75595-2.2678 0.75595-1.5119c0-0.25198-0.25198-0.75595 0-0.75595 0.57547 0 1.5119 2.8999 1.5119-0.75595 0-0.25198-0.57777 0.17818-0.75595 0-0.17818-0.17818 0-0.50397 0-0.75596v-0.75595c0-0.25198-0.25198-0.75595 0-0.75595s0.25198 0.75595 0 0.75595c-0.56345 0 0.1925-1.5119 0.75595-1.5119 0.25198 0 0 1.0079 0 0.75595v-1.5119 0.75595c0-0.50397-0.35636-1.1556 0-1.5119 0.25198-0.25198 1.0079 0.50397 0.75595 0.75596-0.25198 0.25198-0.59658-0.43722-0.75595-0.75596-0.11269-0.22538-0.25198-0.75595 0-0.75595 0.25198 0 0 0.50397 0 0.75595 0-0.50396-0.35636-1.1555 0-1.5119 0.25198-0.25199 0.39959 0.75595 0.75595 0.75595 0.50397 0-0.50397-1.5119 0-1.5119 0.35636 0 0.75595 1.1123 0.75595 0.75595 0-0.56345-0.35753-1.1135-0.75595-1.5119-0.17818-0.17818 0 1.0079 0 0.75596 0-0.50397-0.35636-1.1556 0-1.5119 0.25198-0.25198 0.50397 0.50397 0.75595 0.75595 1.0079-0.75595 3.0238-1.0079 3.0238-2.2678 0-1.1269-1.9305 1.2386-3.0238 1.5119-0.24446 0.0611 0-0.50397 0-0.75595s-0.24446-0.69484 0-0.75595c0.97784-0.24446 2.0159 0 3.0238 0z" fill="#f35745" fill-rule="evenodd" stroke="#da4119" stroke-width=".26458px"/>
  <path d="m52.917 89.113c-0.75595 3.2758-1.5119 6.5516-2.2679 9.8274 0 0.25198 0.25198 0.75595 0 0.75595-0.25198 0-0.17818-0.57777 0-0.75595 0.17818-0.17818 0.75595 0.25198 0.75595 0 0-0.56345-0.35753-1.1135-0.75595-1.5119-0.17818-0.17818 0 1.0079 0 0.75595 0-3.4413-0.35636-0.75595 0.75595-0.75595 0.25199 0-0.17818-0.57777 0-0.75595 0.17818-0.17818 0.75595 0.25198 0.75595 0 0-0.56345-0.75595-0.94845-0.75595-1.5119 0-0.35636 0.50397 1.0079 0.75595 0.75595 0.35636-0.35636-0.35636-1.1555 0-1.5119 0.25198-0.25198 0.50397 0.50397 0.75595 0.75595-0.25198-0.50397-0.75595-0.94845-0.75595-1.5119 0-0.35636 0.39959 0.75595 0.75595 0.75595 0.50397 0-0.50397-1.5119 0-1.5119 1.573 0 0.66053 1.4165 0 0.75595-0.45178-0.45178 0.46074-1.5119 0.75595-1.5119 0.35636 0 1.0079 0.50397 0.75595 0.75595-0.25199 0.25198-0.75595-0.39959-0.75595-0.75595 0-0.35636 0.3996-0.75595 0.75595-0.75595s1.0079 0.50397 0.75595 0.75595c-0.25198 0.25198-1.0079-0.50397-0.75595-0.75595 0.35636-0.35636 1.1555 0.35636 1.5119 0 0.25198-0.25198-1.0079-0.50397-0.75595-0.75595 0.35636-0.35636 1.0079 0 1.5119 0 0.25199 0-0.93413 0.17818-0.75595 0 0.39842-0.39842 0.94845-0.75595 1.5119-0.75595 0.35636 0-1.0079 0.50397-0.75595 0.75595 2.1419 2.1419 1.3229-0.56696 1.5119-0.75595 0.17818-0.17818 0.53057 0.11269 0.75595 0 0.31874-0.15937 0.50397-1.0079 0.75595-0.75595 0.25198 0.25198-0.75595 0.39959-0.75595 0.75595 0 0.25198 0.50397 0 0.75595 0 0.25198 0 0.57777 0.17818 0.75595 0 0.17818-0.17818-0.17818-0.57777 0-0.75595 0.17818-0.17818 0.75595-0.25198 0.75595 0 0 0.66053-2.5072-0.75595 0-0.75595 0.35636 0 0.75595 0.39959 0.75595 0.75595 0 0.25198-0.57777 0.17818-0.75595 0-0.17818-0.17818 0-0.50397 0-0.75595s-0.25198-0.75596 0-0.75596c0.35636 0 0.43722 0.91532 0.75595 0.75596 2.7405-1.3703 0-1.4046 0-2.2679 0-0.71272 1.5119-0.79919 1.5119-1.5119 0-0.35636-0.91532-0.43721-0.75595-0.75595 0.25198-0.50397 1.2599-0.25198 1.5119-0.75595 0.15937-0.31874-0.50397-0.50397-0.75595-0.75595 0.50397-0.25198 1.1135-0.35753 1.5119-0.75595 0.17818-0.17818-0.57777 0.17818-0.75595 0-0.17818-0.17818-0.25198-0.75595 0-0.75595 0.56345 0 0.94845 0.75595 1.5119 0.75595 0.35636 0-1.0079-0.50397-0.75595-0.75595 0.35636-0.35636 1.1555 0.35636 1.5119 0 0.25198-0.25198-0.39959-0.75595-0.75595-0.75595-0.25198 0-0.22538 0.64326 0 0.75595 0.45076 0.22538 1.0611 0.22538 1.5119 0 0.22538-0.11269-0.17818-0.57777 0-0.75595 0.0054-0.0054 2.2679-1.7299 2.2679 0 0 0.25198-0.93413 0.17818-0.75595 0 0.39842-0.39842 0.97736-0.57777 1.5119-0.75595 0.4781-0.15937 1.1555 0.35636 1.5119 0 0.17818-0.17818-0.25198-0.75595 0-0.75595 0.35636 0 0.41788 0.64326 0.75595 0.75595 0.34605 0.11535 3.3578 0 3.7798 0h-0.75595 1.5119-0.75595 1.5119-0.75595 1.5119-0.75595 2.2679-0.75595 4.5357c0.50397 0 1.0611 0.22538 1.5119 0 0.22538-0.11269-0.17818-0.57777 0-0.75595 0.17818-0.17818 0.57777 0.17818 0.75595 0 1.2599-1.2599-2.7718-0.75595 1.5119-0.75595h-0.75595 1.5119c0.25199 0-0.75595 0.25198-0.75595 0 0-0.25198 0.50397 0 0.75595 0 0.25199 0 0.75596-0.25198 0.75596 0 0 0.35636-0.75596 0.39959-0.75596 0.75595 0 0.25198 0.53057-0.11269 0.75596 0 0.31874 0.15937 0.75595 0.39959 0.75595 0.75595 0 0.25198-0.75595 0.25198-0.75595 0s0.50397 0 0.75595 0c2.4334 0-1.2905-0.17818 1.5119 0.75595 0.95621 0.31874 2.1223-0.45076 3.0238 0 0.22538 0.11269-0.22538 0.64326 0 0.75595 0.45076 0.22538 1.0079 0 1.5119 0h1.5119c0.25198 0-0.75595 0.25198-0.75595 0 0-0.25198 0.61618 0.20966 0.75595 0 0.44201-0.66301 0.39959-1.5551 0.75595-2.2679 0.15937-0.31874 0.59658-0.43722 0.75595-0.75595 0.11269-0.22538 0-0.50397 0-0.75595 0.75595-0.50397 1.6254-0.86947 2.2679-1.5119 0.17818-0.17818-0.75595 0.25198-0.75595 0s0.64326 0.22538 0.75595 0c0.22538-0.45076-0.35636-1.1555 0-1.5119s1.0079 0 1.5119 0c0.25199 0-0.57777 0.17818-0.75595 0-0.17818-0.17818-0.25199-0.75595 0-0.75595 0.56345 0 1.1135 0.35753 1.5119 0.75595 0.33598 0.33598-2.0999-0.084-0.75595-0.75595 0.45077-0.22538 1.1556 0.35636 1.5119 0 0.25198-0.25198-0.3996-0.75595-0.75596-0.75595-0.25198 0-0.22538 0.64326 0 0.75595 0.45077 0.22538 1.0079 0 1.5119 0 1.0079 0-2.7718 0.25198-0.75595-0.75595 0.45076-0.22538 1.0079 0 1.5119 0h-0.75595 5.2917-0.75596 1.5119-0.75595 1.5119c0.25198 0 0.5169-0.07968 0.75595 0 0.53454 0.17818 0.97737 0.57777 1.5119 0.75595 0.23905 0.07968 0.54629-0.13978 0.75595 0 5.1405 3.427 0.32758 1.1843 0.75595 0.75595 0.35636-0.35636 1.0079 0 1.5119 0 1.0079 0 2.0354-0.19767 3.0238 0 0.55251 0.1105 1.0079 0.50397 1.5119 0.75595 0.75595 0.25198 1.4865 0.59968 2.2679 0.75595 5.7355 1.1471-1.579-1.1675 2.2679 0.75595 0.22538 0.11269 0.57777-0.17818 0.75595 0 0.39842 0.39842 0.35753 1.1135 0.75595 1.5119 0.17818 0.17818-0.22538-0.64326 0-0.75595 0.45076-0.22538 1.2865-0.45076 1.5119 0 0.25198 0.50397-0.35754 1.1135-0.75596 1.5119-0.17818 0.17818-0.22538-0.64326 0-0.75595 0.45077-0.22538 1.0079 0 1.5119 0h-0.75595c0.50396 0 1.1555-0.35636 1.5119 0 0.25199 0.25198-0.59658 0.43721-0.75595 0.75595-0.11269 0.22538-0.25199 0.75595 0 0.75595 0.56345 0 1.1135-0.35753 1.5119-0.75595 0.17818-0.17818-0.75595 0.25198-0.75595 0 0-0.85332 3.157 1.5119 0.75595 1.5119-0.25198 0 0-1.0079 0-0.75595v1.5119c0 0.25198-0.11269-0.98134 0-0.75595 0.35636 0.71272 0.3996 1.5551 0.75595 2.2679 0.1127 0.22538-0.25198-0.75595 0-0.75595 0.25199 0-0.0797 0.5169 0 0.75595 0.17819 0.53454 0.75596 0.94845 0.75596 1.5119 0 0.25198-0.64326-0.22538-0.75596 0-0.22538 0.45076 0 1.0079 0 1.5119 0 0.25198-0.25198-0.75596 0-0.75596 0.50397 0-0.50396 1.5119 0 1.5119 0.56346 0 1.1135-0.35753 1.5119-0.75595 0.17818-0.17818-0.57777-0.17818-0.75595 0-0.17818 0.17818-0.17818 0.57777 0 0.75595 3.6559 3.6559 0.75595-0.5789 0.75595 0 0 0.56345 0.35753 1.1135 0.75595 1.5119 0.17818 0.17818-0.17818-0.93413 0-0.75595 0.39843 0.39842 0.35753 1.1135 0.75595 1.5119 0.17819 0.17818-0.17817-0.57777 0-0.75596 0.17819-0.17818 0.50397 0 0.75596 0h0.75595 3.0238c0.25198 0-0.99501 0.07969-0.75595 0 0.98564-0.32855 1.999-0.58515 3.0238-0.75595 0.49711-0.08285 1.0611 0.22538 1.5119 0 0.22538-0.11269 0-0.50397 0-0.75595h1.5119c0.25198 0-0.57778-0.17818-0.75596 0-0.17818 0.17818 0 0.50397 0 0.75595v1.5119-0.75596c0 0.50397-0.27955 1.0926 0 1.5119 0.31255 0.46882 1.0431 0.4434 1.5119 0.75595 0.59302 0.39535 0.87443 1.1932 1.5119 1.5119 0.22538 0.11269 0.53057-0.11269 0.75595 0 0.31874 0.15937 0.43722 0.59658 0.75596 0.75595 0.45076 0.22538 1.1555-0.35636 1.5119 0 0.17818 0.17818-0.17818 0.57777 0 0.75595 0.35636 0.35636 1.1556-0.35636 1.5119 0 0.17818 0.17818-0.17818 0.57777 0 0.75595 0.39842 0.39842 1.2599 0.25198 1.5119 0.75595 0.15937 0.31874-0.75595 0.39959-0.75595 0.75595 0 0.25198 0.57777-0.17818 0.75595 0 0.35636 0.35636-0.22538 1.0611 0 1.5119 0.15937 0.31874 0.59658 0.43721 0.75595 0.75595 0.11269 0.22538-0.17818 0.57777 0 0.75595 0.39843 0.39842 1.1135 0.35753 1.5119 0.75595 0.17818 0.17818-0.93413-0.17818-0.75595 0 0.39842 0.39842 1.1135 0.35753 1.5119 0.75595 0.17818 0.17818-0.57777-0.17818-0.75595 0-0.17818 0.17818 0 0.50397 0 0.75595s-0.17818 0.57777 0 0.75595c0.35636 0.35636 1.0611-0.22538 1.5119 0 0.31874 0.15937 0.50397 0.50397 0.75596 0.75595 0.75595 0 1.5345-0.18334 2.2678 0 0.34572 0.0864 0.41024 0.66953 0.75596 0.75596 0.67322 0.1683 4.2878 0 5.2917 0h-0.75595 1.5119-0.75595 1.5119c0.18334 0 2.2435 0.0243 2.2678 0 0.17818-0.17818-0.17818-0.57778 0-0.75596s0.57778-0.17818 0.75596 0-0.11269 0.53058 0 0.75596c0.15936 0.31873 0.59658 0.43721 0.75595 0.75595 0.20505 0.41009-0.20685 2.817 0 3.0238 0.17818 0.17818 0.57777-0.17818 0.75595 0s0 0.50397 0 0.75595c0 1.2599-0.25198 0.75595 1.5119 0.75595 0.25198 0-0.57778-0.17818-0.75596 0s-0.17818 0.57778 0 0.75595c0.39842 0.39843 0.94845 0.75596 1.5119 0.75596 0.35636 0-1.0079-0.50397-0.75595-0.75596 0.35636-0.35635 1.0079 0 1.5119 0 0.25198 0-0.57777-0.17817-0.75595 0-0.17818 0.17819 0 0.50398 0 0.75596v0.75595 6.0476 0.75595c0 0.25199 0.11269 0.53057 0 0.75595-0.15937 0.31874-0.64327 0.41789-0.75595 0.75596-0.13936 0.41805 0 3.7744 0 4.5357v0.75595c0 0.25199-0.22539 0.64327 0 0.75595 0.27603 0.13802 3.6326-0.14713 3.7798 0 0.17818 0.17819 0 0.50398 0 0.75596 0.50396 0 1.0611-0.22538 1.5119 0 0.22538 0.11269-0.25198 0.75595 0 0.75595 0.35636 0 0.3996-0.75595 0.75595-0.75595 0.25199 0-0.17818 0.57777 0 0.75595 1.5641 1.5641-0.0611-2.3901 1.5119 0.75595 0.11269 0.22538 0 0.50397 0 0.75596v0.75595 3.7798 0.75595c0 0.25199 0.11269 0.53057 0 0.75595-0.15937 0.31874-0.59658 0.43722-0.75595 0.75596-0.11269 0.22538 0.17818 0.57777 0 0.75595s-0.57777-0.17818-0.75596 0c-0.11117 0.11117 0.0889 2.2679 0 2.2679-0.25198 0-0.25198-0.75596 0-0.75596 0.25199 0 0 0.50397 0 0.75596 0 0.25198 0.25199 0.75595 0 0.75595-0.25198 0 0-1.0079 0-0.75595v1.5119 0.75595c0 0.25199 0.25199 0.75595 0 0.75595-0.25198 0-0.25198-0.75595 0-0.75595 0.25199 0 0 0.50397 0 0.75595 0 0.18334-0.0243 2.2436 0 2.2679 0.18191 0.18191 2.8419-0.1819 3.0238 0 0.17818 0.17818-0.17817 0.57778 0 0.75596 0.17818 0.17817 0.57778-0.17818 0.75596 0 0.35635 0.35636-0.35636 1.1555 0 1.5119 1.0079 1.0079 0.75595-1.2599 0.75595 0.75595v1.5119c0 0.25198-0.25198 0.75595 0 0.75595 0.35636 0 0.50397-1.0079 0.75595-0.75595 0.35636 0.35636 0 1.0079 0 1.5119v-0.75595 3.0238c0 0.25198 0.25198 0.75595 0 0.75595s0-1.0079 0-0.75595v3.7798c0 0.27762-0.0304 2.9934 0 3.0238 0.18191 0.18191 2.8419-0.18191 3.0238 0 0.17818 0.17818-0.17818 0.57777 0 0.75595s0.57777-0.17818 0.75595 0c1.1087 1.1087-1.4363 0.68036-1.5119 0.75596-0.17818 0.17817 0 0.50396 0 0.75595v0.75595 0.75595c0 0.25198-0.22538 0.64326 0 0.75596 0.45076 0.22538 1.1555-0.35636 1.5119 0 0.35636 0.35635-0.45076 1.2865 0 1.5119 0.50397 0.25198 0.97737-0.93413 1.5119-0.75595 3.1224 1.0408-0.25199 1.2599 0.75595 2.2678 0.17818 0.17818 0.57777-0.17818 0.75595 0s0 0.50397 0 0.75596v2.2678 1.5119c0 0.25198 0.25199 0.75595 0 0.75595-0.35636 0-0.39959-0.75595-0.75595-0.75595-0.50397 0 0.50397 1.5119 0 1.5119-0.25198 0 0-1.0079 0-0.75595v1.5119c0 0.25199-0.25198-0.75595 0-0.75595s0 0.50397 0 0.75595c0 0.25199 0.11269 0.53058 0 0.75596-1.573 3.1461-0.30417-0.45178-0.75595 0-0.39843 0.39842-0.35753 1.1135-0.75595 1.5119-0.17819 0.17818-0.25199-0.75595 0-0.75595 0.25198 0 0 0.50397 0 0.75595 0 0.25199 0.25198 0.75596 0 0.75596-0.25199 0 0.25198-0.75596 0-0.75596-1.5857 0 0.0738 2.2679-1.5119 2.2679-0.35636 0-0.39959-0.75595-0.75595-0.75595-0.50397 0 0.50397 1.5119 0 1.5119-0.35636 0-0.41788-0.64326-0.75595-0.75595-0.47811-0.15937-1.0079 0-1.5119 0h0.75595-1.5119c-0.25198 0 0.75595-0.25198 0.75595 0s-0.50397 0-0.75595 0h-1.5119-0.75595c-0.25198 0-0.57777-0.17818-0.75595 0-0.45178 0.45178 0.81709 1.5119-0.75595 1.5119-0.25199 0 0-1.0079 0-0.75595 0 5.0144 0.35636-0.35636-0.75596 0.75595-0.52886 0.52886 0.34929 2.3252 0 3.0238-0.15936 0.31874-0.39959 0.75596-0.75595 0.75596-0.25198 0 0-1.0079 0-0.75596 0 0.50397 0.45077 1.2865 0 1.5119-0.50396 0.25198-0.94845-0.75595-1.5119-0.75595-0.35636 0 0.59658 0.43721 0.75595 0.75595 0.11269 0.22538 0.25199 0.75595 0 0.75595s0-1.0079 0-0.75595v1.5119c0 0.25199 0.25199-0.75595 0-0.75595-0.35636 0-0.59658 0.43721-0.75595 0.75595-0.11269 0.22538 0.25198 0.75595 0 0.75595-0.25199 0 0.25198-0.75595 0-0.75595-0.35636 0-0.75595 0.3996-0.75595 0.75595 0 0.35636 0.39959 0.75596 0.75595 0.75596 0.25198 0 0-1.0079 0-0.75596v2.2679c0 0.25199 0.25198 0.75595 0 0.75595-0.25199 0 0-1.0079 0-0.75595 0 3.4413-0.35636 0.75595 0.75595 0.75595 0.35636 0 0.75595 0.3996 0.75595 0.75596s-0.50396 1.0079-0.75595 0.75595 0.39959-0.75595 0.75595-0.75595 0.75595 0.39959 0.75595 0.75595-0.50396 1.0079-0.75595 0.75595c-0.25198-0.25198 0.3996-0.75595 0.75595-0.75595 0.25199 0-0.17818 0.57777 0 0.75595 0.17819 0.17818 0.53058-0.11269 0.75596 0 0.31873 0.15937 1.0079 0.50397 0.75595 0.75596-0.25199 0.25198-1.0079-1.0079-0.75595-0.75596 0.50396 0.50397 1.0079 1.0079 1.5119 1.5119 0.25199 0.25198-1.0079-0.50397-0.75595-0.75595 0.25198-0.25199 0.43721 0.59658 0.75595 0.75595 0.22538 0.11269 0.57778-0.17818 0.75595 0 0.17818 0.17818 0.25199 0.75595 0 0.75595-0.25198 0-0.25198-0.75595 0-0.75595 0.25199 0 0 0.50396 0 0.75595 0 0.25198 0.25199 0.75595 0 0.75595-0.25198 0-0.25198-0.75595 0-0.75595 0.25199 0 0 0.50397 0 0.75595s0.25199 0.75595 0 0.75595c-0.25198 0-0.25198-0.75595 0-0.75595 0.25199 0 0 0.50397 0 0.75595 0 0.25199 0.25199 0.75596 0 0.75596-0.25198 0-0.25198-0.75596 0-0.75596 0.25199 0 0 0.50397 0 0.75596 0 0.25198 0.25199 0.75595 0 0.75595-0.25198 0-0.25198-0.75595 0-0.75595 0.25199 0 0 0.50396 0 0.75595 0 0.25198 0.25199 0.75595 0 0.75595-0.38847 0 0.75596-3.9316 0.75596 0.75595 0 0.25199-0.75596-0.25198-0.75596 0 0 0.35636 0.59659 0.43722 0.75596 0.75596 0.11269 0.22538 0.25198 0.75595 0 0.75595-0.38847 0 0.75595-3.9316 0.75595 0.75595 0 0.35636-0.3996-0.75595-0.75595-0.75595-0.25199 0 0 0.50397 0 0.75595v1.5119c0 0.25199 0.25198 0.75596 0 0.75596-0.077 0 0.39755-3.8189-1.5119 0-0.15937 0.31873 1.1123 0.75595 0.75595 0.75595-0.56345 0-0.94845-0.75595-1.5119-0.75595-0.25199 0 0.17818 0.57777 0 0.75595s-0.57777-0.17818-0.75595 0 0.25198 0.75595 0 0.75595c-0.35636 0-0.3996-0.75595-0.75596-0.75595-0.35635 0-0.43721 0.59658-0.75595 0.75595-0.23006 0.11503-1.9274 0-2.2678 0-0.25199 0-0.57778 0.17818-0.75596 0s0.22538-0.64326 0-0.75595c-0.45076-0.22538-1.0079 0-1.5119 0h0.75595-1.5119 0.75595-1.5119 0.75596-1.5119 0.75595-1.5119 0.75595-2.2679c-0.25198 0 0.57778-0.17818 0.75596 0s0.17818 0.57777 0 0.75595c-2.7406 2.7406-1.3349 0-0.75596 0 0.25199 0 0 0.50397 0 0.75595 0 0.25199 0.25199 0.75596 0 0.75596-0.35636 0-0.39959-0.75596-0.75595-0.75596s-0.75595 0.3996-0.75595 0.75596 0.39959 0.75595 0.75595 0.75595c0.25199 0 0.17818-0.57777 0-0.75595-0.45178-0.45178-1.5119 0.46073-1.5119 0.75595 0 1.573 1.4165 0.66053 0.75595 0-0.57947-0.57947-1.5119 0.60207-1.5119 1.5119 0 0.35635 1.0079-1.0079 0.75596-0.75596l-1.5119 1.5119c-0.25198 0.25198 1.0079-0.50397 0.75595-0.75595-0.35636-0.35637-1.1555-0.35637-1.5119 0-0.25199 0.25198 0.59658 0.43721 0.75595 0.75595 0.11269 0.22538 0.25199 0.75595 0 0.75595-0.56345 0-0.94845-0.75595-1.5119-0.75595-0.35636 0 1.0079 0.50396 0.75595 0.75595-0.35636 0.35636-1.0079 0-1.5119 0h0.75596-1.5119c-0.25198 0 0.75595-0.25199 0.75595 0 0 0.25198-0.57777-0.17818-0.75595 0s0.25199 0.75595 0 0.75595c-0.35636 0-0.75595-0.39959-0.75595-0.75595 0-0.25199 0.75595-0.25199 0.75595 0 0 0.35636-0.50396 0.50397-0.75595 0.75595s-0.50397 1.0079-0.75595 0.75595c-0.25199-0.25198 1.1123-0.75595 0.75595-0.75595-4.5658 0-0.18048 0.93643-0.75595 1.5119-0.25199 0.25198-0.3996-0.75596-0.75595-0.75596-0.35636 0-0.75596 0.3996-0.75596 0.75596s0.3996 0.75595 0.75596 0.75595c0.25198 0 0.17817-0.57778 0-0.75595-0.17819-0.17818-0.57778-0.17818-0.75596 0-0.17818 0.17817 0 0.50396 0 0.75595v1.5119c0 0.25199 0.25199 0.75596 0 0.75596-0.25198 0-0.25198-0.75596 0-0.75596 0.20875 0-0.11703 2.1508-0.75595 1.5119-0.25198-0.25199 0.39959-0.75595 0.75595-0.75595 0.52917 0-0.22678 1.5119-0.75595 1.5119-0.25198 0 0-1.0079 0-0.75595v1.5119c0 0.25199 0.17818-0.57777 0-0.75595s-0.75595-0.25198-0.75595 0c0 0.56346 1.1544 1.1135 0.75595 1.5119-5.0439-0.15592-0.59658-1.0747-0.75595-0.75595-0.31874 0.63748-0.87443 1.1932-1.5119 1.5119-0.22538 0.11269-0.25198-0.75596 0-0.75596 0.25199 0 0.13978 0.54629 0 0.75596-0.39534 0.59301-1.2865 0.83576-1.5119 1.5119-0.11269 0.33807 1.1123 0.75595 0.75595 0.75595-0.56345 0-0.94845-0.75595-1.5119-0.75595-0.35636 0 0.75595 0.39959 0.75595 0.75595 0 0.25199-0.50397 0-0.75595 0h-1.5119c-0.25198 0-0.75595 0.25199-0.75595 0 0-0.25198 1.0079 0 0.75595 0-0.50397 0-1.0338 0.15937-1.5119 0-2.8024-0.93413 0.20875-0.75595 0-0.75595h-2.2679 0.75595c-0.50397 0-1.1555 0.35636-1.5119 0-0.57548-0.57547 3.8098-1.5119-0.75596-1.5119-0.35635 0 0.75596 0.39959 0.75596 0.75595 0 0.52917-1.5119-0.22678-1.5119-0.75595 0-0.25199 0.75595-0.25199 0.75595 0 0 0.20875-2.1508-0.11704-1.5119-0.75596 0.25199-0.25198 0.75595 0.3996 0.75595 0.75596 0 0.25198-0.50396 0-0.75595 0h-1.5119c-0.25199 0-0.75596-0.25199-0.75596 0 0 0.35636 0.75596 0.39959 0.75596 0.75595s-0.3996 0.75595-0.75596 0.75595c-0.25198 0 0.17818-0.57777 0-0.75595s-0.75595-0.25198-0.75595 0c0 0.35636 0.75595 0.39959 0.75595 0.75595s-0.39959 0.75595-0.75595 0.75595c-0.25198 0 0.17818-0.93413 0-0.75595-0.39842 0.39842-0.75595 0.94845-0.75595 1.5119 0 0.35636 1.1123-0.75596 0.75595-0.75596-0.56345 0-1.1135 0.35753-1.5119 0.75596-0.45178 0.45178 3.1461-0.8171 0 0.75595-0.22539 0.11269-0.75596-0.25198-0.75596 0 0 0.35636 0.59659 0.43721 0.75596 0.75595 0.11269 0.22538 0.25198 0.75596 0 0.75596-0.35636 0-0.43722-0.59659-0.75596-0.75596-0.93093-0.46547-1.5119 0.81544-1.5119 1.5119 0 0.35636 0.75595-0.3996 0.75595-0.75595 0-0.25199-0.57777-0.17819-0.75595 0-0.39842 0.39842-0.35753 1.1135-0.75595 1.5119-0.17818 0.17818 0.17818-0.57777 0-0.75595s-0.64327-0.22539-0.75596 0c-0.22538 0.45076 0.35636 1.1555 0 1.5119-0.25198 0.25198-0.75595-0.39959-0.75595-0.75595 0-0.25199 0.86864-0.22538 0.75595 0-0.31873 0.63747-1.0079 1.0079-1.5119 1.5119-0.25198 0.25199 1.0079-0.50397 0.75595-0.75595-0.35636-0.35636-1.0079 0-1.5119 0-0.25199 0 0.75595-0.25198 0.75595 0 0 0.35636-0.50397 0.50397-0.75595 0.75595-0.25199 0.25199-0.3996 0.75596-0.75596 0.75596-0.25198 0 0.17819-0.57778 0-0.75596-0.17817-0.17818-0.75595-0.25198-0.75595 0 0 0.56346 1.1544 1.1135 0.75595 1.5119-0.39842 0.39842-1.1135-0.35753-1.5119-0.75595-0.17818-0.17819 0.86864-0.22539 0.75595 0-0.31874 0.63747-0.83576 1.2865-1.5119 1.5119-0.33807 0.11269-0.3996-0.75595-0.75596-0.75595-0.35635 0-0.43721 0.59658-0.75595 0.75595-0.23006 0.11503-1.9274 0-2.2678 0h-0.75596c-0.25198 0-0.75595 0.25199-0.75595 0 0-0.25198 1.0079 0 0.75595 0h-1.5119c-0.25199 0 0.75595-0.25198 0.75595 0 0 0.25199-0.50397 0-0.75595 0h-0.75595-1.5119c-0.25198 0-0.75595 0.25199-0.75595 0 0-0.25198 1.0079 0 0.75595 0h-3.7798 0.75595-3.0238c-0.25198 0-0.75595 0.25199-0.75595 0 0-0.25198 0.75595-0.25198 0.75595 0 0 0.35636-0.39959 0.75595-0.75595 0.75595-0.25199 0 0.17818-0.57777 0-0.75595s-0.64326-0.22538-0.75595 0c-0.22538 0.45076 0 1.0079 0 1.5119 0 1.0079 0.25198-2.7718-0.75595-0.75596-0.22539 0.45077 0.35635 1.1556 0 1.5119-0.25199 0.25198-0.50397-1.0079-0.75596-0.75595-0.35636 0.35635 0.35636 1.1555 0 1.5119-0.25198 0.25198-0.43721-0.59658-0.75595-0.75595-0.22538-0.11269-0.75595-0.25199-0.75595 0 0 0.56345 0.75595 0.94845 0.75595 1.5119 0 0.35636-0.43721-0.59658-0.75595-0.75595-0.62564-0.31282-1.266 0.26421-1.5119 0.75595-0.11269 0.22538 0.25199 0.75595 0 0.75595-0.35635 0-0.43721-0.91532-0.75595-0.75595-0.50397 0.25199-0.35753 1.1135-0.75595 1.5119-0.17818 0.17818 0-1.0079 0-0.75596 0 0.50397 0.35636 1.1556 0 1.5119-0.25199 0.25198-0.43722-0.59659-0.75595-0.75595-0.19877-0.0994-2.6285 0-3.0238 0h-5.2917c-0.75595 0-1.5507 0.23905-2.2679 0-0.33807-0.11269-0.41788-0.64326-0.75595-0.75596-0.4781-0.15937-1.1555 0.35636-1.5119 0-0.35636-0.35636 0.27955-1.0926 0-1.5119-0.31255-0.46882-0.94845-0.75595-1.5119-0.75595-0.35636 0-0.75595 1.1123-0.75595 0.75595 0-0.56345 1.1544-1.1135 0.75595-1.5119-0.39842-0.39843-1.1135 0.35753-1.5119 0.75595-0.17818 0.17818 0.93413 0.17818 0.75595 0-0.39842-0.39842-1.1135-0.35753-1.5119-0.75595-0.17818-0.17818 0.93413 0.17818 0.75595 0-0.39842-0.39843-0.94845-0.75596-1.5119-0.75596-1.2293 0-0.19084 1.4165-1.5119 0.75596-0.31874-0.15937-0.43722-0.59659-0.75595-0.75596-0.27338-0.13669-3.254 0-3.7798 0-0.25198 0-0.57777 0.17818-0.75595 0-0.11117-0.11117 0.08893-2.2678 0-2.2678-0.35636 0-0.39959 0.75595-0.75595 0.75595-0.25198 0 0.17818-0.57778 0-0.75595-0.17818-0.17819-0.53057 0.11269-0.75595 0-0.31874-0.15937-0.39959-0.75596-0.75595-0.75596-0.25198 0 0.17818 0.93413 0 0.75596-0.39842-0.39843-0.35753-1.1135-0.75595-1.5119-0.17818-0.17818 0.25199 0.75595 0 0.75595-0.25198 0 0.17818-0.57777 0-0.75595-0.35636-0.35636-1.5119 0.50397-1.5119 0 0-0.71395 3.5278 1.4279-0.75595 0-0.33807-0.11269-0.3996-0.75595-0.75595-0.75595-0.52429 0-1.4909 1.1444-2.2679 0.75595-0.42003-0.21002-1.2682-1.5119-1.5119-1.5119-0.25198 0 0 0.50396 0 0.75595-0.25198-0.25199-0.43722-0.59658-0.75595-0.75595-0.22538-0.11269-0.57777 0.17818-0.75595 0-0.17818-0.17818-0.25198-0.75595 0-0.75595s0.17818 0.57777 0 0.75595c-0.17818 0.17818-0.53057 0.11269-0.75595 0-0.31874-0.15937-0.43722-0.59659-0.75595-0.75595-0.52216-0.26109-3.5144 0.26535-3.7798 0-0.17818-0.17819 0.25198-0.75596 0-0.75596-0.35636 0-0.43721 0.59659-0.75595 0.75596-0.22538 0.11268-0.50397 0-0.75595 0h-0.75595-3.7798-0.75595c-0.25198 0-0.57777-0.17819-0.75596 0-0.17818 0.17817 0.17818 0.57777 0 0.75595-0.07559 0.0756-2.1923 0.0756-2.2679 0-0.17818-0.17818 0.17818-0.57778 0-0.75595-0.17818-0.17819-0.57777 0.17817-0.75595 0-0.17818-0.17819 0-0.50398 0-0.75596s-0.25198-0.75595 0-0.75595 0.25198 0.75595 0 0.75595c-1.573 0-0.30417-1.0601-0.75595-1.5119-0.35636-0.35636-1.1555 0.35636-1.5119 0-0.17818-0.17818-0.25198-0.75596 0-0.75596 0.25199 0 0.17818 0.57778 0 0.75596-0.17818 0.17818-0.57777 0.17818-0.75595 0-0.17818-0.17818 0.17818-0.57778 0-0.75596-0.37798-0.37797-1.8899 0.37798-2.2679 0-0.17818-0.17817 0.25198-0.75595 0-0.75595-0.56345 0-0.94845 0.75595-1.5119 0.75595-0.25198 0 0.11269-0.53057 0-0.75595-0.15937-0.31874-0.43722-0.59658-0.75595-0.75595-0.45076-0.22538-1.1555 0.35636-1.5119 0-0.17818-0.17818 0.25198-0.75595 0-0.75595-0.35636 0-0.39959 0.75595-0.75595 0.75595-0.25199 0 0.11269-0.53057 0-0.75595-0.15937-0.31874-0.3996-0.75596-0.75595-0.75596-0.25198 0 0.25198 0.75596 0 0.75596s0-0.50397 0-0.75596c0-0.25198-0.25198-0.75595 0-0.75595s0 1.0079 0 0.75595v-1.5119-0.75595c0-0.25199-0.25198-0.75595 0-0.75595 0.35636 0 0.3996 0.75595 0.75595 0.75595 0.25198 0 0-0.50397 0-0.75595 0-0.18334 0.02432-2.2436 0-2.2679-0.45178-0.45178-1.5119 0.81709-1.5119-0.75595 0-0.25199 0.57777 0.17817 0.75595 0 0.01886-0.0189 0-3.4958 0-3.7798 0-0.82811 0.07633-2.9856 0-3.0238-0.45076-0.22538-1.0079 0-1.5119 0h0.75595-1.5119c-0.25198 0 0.75595 0.25199 0.75595 0 0-0.35636-0.43722-0.59658-0.75595-0.75595-0.45076-0.22538-1.5119 0.50397-1.5119 0 0-0.22589 2.5072 0.49764 0-0.75595-0.22538-0.11269-0.50397 0-0.75595 0-0.50397 0-1.0611 0.22538-1.5119 0-0.22538-0.11269 0.17818-0.57777 0-0.75595s-0.53057 0.11269-0.75595 0c-0.31874-0.15937-0.3996-0.75596-0.75595-0.75596-0.25198 0 0.17818 0.57778 0 0.75596-0.17818 0.17818-0.57777 0.17818-0.75595 0-0.45178-0.45178 0.81709-1.5119-0.75595-1.5119-0.25198 0 0.25198 0.75595 0 0.75595-0.52917 0-1.2851-1.5119-0.75595-1.5119 0.25198 0 0.25198 0.75595 0 0.75595-0.56345 0-1.1135-0.35753-1.5119-0.75595-0.17818-0.17818 0.93413 0.17818 0.75595 0-0.39842-0.39842-1.1135-0.35753-1.5119-0.75595-0.17818-0.17818 0.93413 0.17818 0.75595 0-0.39842-0.39842-1.1135-0.35753-1.5119-0.75595-0.17818-0.17818 1.0079 0 0.75596 0-0.50397 0-1.1555 0.35635-1.5119 0-0.25198-0.25199 1.0079-0.50397 0.75595-0.75596-0.35636-0.35636-1.0079 0-1.5119 0h0.75595-1.5119c-0.25199 0 0.57777 0.17818 0.75595 0 0.17818-0.17818 0.22538-0.64326 0-0.75595-0.45076-0.22538-1.0079 0-1.5119 0-0.25198 0 0.57777 0.17818 0.75595 0 0.17818-0.17818 0.17818-0.57777 0-0.75595-0.35636-0.35636-1.1555 0.35636-1.5119 0-0.17818-0.17818 0.17818-0.57778 0-0.75595-0.17818-0.17818-0.50397 0-0.75595 0-0.50397-0.25199-1.1135-0.35754-1.5119-0.75596-0.17818-0.17818 0.93413 0.17818 0.75595 0-0.39842-0.39842-1.2599-0.25198-1.5119-0.75595-0.15937-0.31874 0.50397-1.0079 0.75595-0.75595 0.25198 0.25198-0.43721 0.91532-0.75595 0.75595-0.50397-0.25198-0.75595-0.94845-0.75595-1.5119 0-0.35636 0.39959 0.75595 0.75595 0.75595 0.25198 0 0-0.50397 0-0.75595v-0.75595c0-0.25199-0.22538-0.64327 0-0.75596 0.45076-0.22538 1.0338 0.15937 1.5119 0 2.8024-0.93413-0.20875-0.75595 0-0.75595 0.50397 0 1.1555 0.35636 1.5119 0 0.25198-0.25198-0.75595-0.39959-0.75595-0.75595 0-0.50397 1.1555 0.35636 1.5119 0 0.17818-0.17818 0-0.50397 0-0.75596 0-2.1088-1.0833-1.0833-2.2679-2.2678-0.17818-0.17818 1.0079 0 0.75595 0-0.50397 0-1.1555 0.35636-1.5119 0-0.25198-0.25199 0.64326-0.41788 0.75595-0.75596 0.15937-0.4781 0-1.0079 0-1.5119 0-0.25198 0.17818-0.57777 0-0.75595-0.39842-0.39842-1.1135-0.35753-1.5119-0.75595-0.17818-0.17818 0.57777 0.17818 0.75595 0 0.17818-0.17818 0.17818-0.57778 0-0.75596-0.45178-0.45178-1.5119 0.8171-1.5119-0.75595 0-0.35636 0.59658-0.43721 0.75595-0.75595 0.11269-0.22538 0-0.50397 0-0.75595 0-0.25199 0.11269-0.53058 0-0.75596-0.15937-0.31873-0.43722-0.59658-0.75595-0.75595-0.22538-0.11269-0.75595 0.25198-0.75595 0 0-0.35636 0.59658-0.43721 0.75595-0.75595 0.11269-0.22538 0-0.50397 0-0.75595 0-0.25199 0.17818-0.57778 0-0.75595-0.45178-0.45179-1.5119 0.81709-1.5119-0.75596 0-0.25198 0.57777 0.17818 0.75595 0 0.17818-0.17818 0.22538-0.64326 0-0.75595-0.45076-0.22538-1.2865 0.45076-1.5119 0-0.25198-0.50397 0.35753-1.1135 0.75595-1.5119 0.17818-0.17817 0.25198 0.75596 0 0.75596-0.56345 0-1.2599-0.25199-1.5119-0.75596-0.15937-0.31873 0.39959-0.75595 0.75595-0.75595 0.25198 0 0.25198 0.75595 0 0.75595-0.25198 0 0-0.50396 0-0.75595 0-0.25198-0.25198-0.75595 0-0.75595 0.25198 0-0.17818 0.57777 0 0.75595 0.17818 0.17818 0.57777 0.17818 0.75595 0 0.39842-0.39842 0.25198-1.2599 0.75595-1.5119 0.31874-0.15937 0.75595 0.39959 0.75595 0.75595 0 0.25198-0.86864 0.22538-0.75595 0 0.31874-0.63748 1.0079-1.0079 1.5119-1.5119 0.25198-0.25198-0.75595 1.1123-0.75595 0.75596 0-0.79685 0.39959-1.5551 0.75595-2.2679 0.11269-0.22538 0.17818 0.93413 0 0.75595-0.39842-0.39842-0.22141-1.3337-0.75595-1.5119-0.53454-0.17818-0.94845 0.75595-1.5119 0.75595-0.25198 0 0.17818-0.57777 0-0.75595-0.17818-0.17818-0.50397 0-0.75595 0-0.25198 0-0.75595 0.25198-0.75595 0 0-0.25199 0.75595-0.25199 0.75595 0 0 0.25198-0.64326 0.22538-0.75595 0-0.22538-0.45077 0-1.0079 0-1.5119v0.75596-1.5119 0.75595c0-0.50396-0.15937-1.0338 0-1.5119 0.11269-0.33807 0.50397-0.50397 0.75595-0.75595 0.25198-0.25199 0.43722-0.59659 0.75595-0.75595 0.93094-0.46547 1.5119 1.2662 1.5119-1.5119 0-1.3211-2.6854 4.1973 0.75595 0.75595 0.25198-0.25198-0.75595-0.39959-0.75595-0.75595s0.39959-0.75595 0.75595-0.75595c0.25198 0 0 1.0079 0 0.75595v-1.5119 0.75595-6.0476c0-0.20875 0.17818 2.8024-0.75595 0-0.15937-0.47811 0-1.0079 0-1.5119v0.75596-2.2679 0.75595c0-0.50397 0.45076-1.2865 0-1.5119-0.50397-0.25199-1.1135 1.1544-1.5119 0.75595-0.39842-0.39842 0.35753-1.1135 0.75595-1.5119 0.17818-0.17818 0 1.0079 0 0.75596 0-0.50397 0.45076-1.2865 0-1.5119-0.50397-0.25198-1.1135 1.1544-1.5119 0.75595s0.35753-1.1135 0.75595-1.5119c0.17818-0.17818 0.17818 0.57777 0 0.75595-0.17818 0.17818-0.57777 0.17818-0.75595 0-0.39842-0.39842-0.75595-0.94845-0.75595-1.5119 0-0.35636 0.50397 1.0079 0.75595 0.75595 0.35636-0.35636 0-1.0079 0-1.5119v0.75595-1.5119 0.75596-12.851 0.75596-1.5119c0-0.25198-0.17818 0.57777 0 0.75595 0.17818 0.17818 0.57777 0.17818 0.75595 0 0.39842-0.39842 0.75595-0.94845 0.75595-1.5119 0-0.25199-0.75595 0.25198-0.75595 0 0-0.25199 0.57777 0.17818 0.75595 0 0.39842-0.39842 0.75595-0.94845 0.75595-1.5119 0-0.35636-0.75595 1.1123-0.75595 0.75595 0-0.56346 0.35753-1.1135 0.75595-1.5119 0.17818-0.17818 0.75595 0.25199 0.75595 0 0-0.35636-0.91532-0.43721-0.75595-0.75595 0.25198-0.50397 0.94845-0.75595 1.5119-0.75595 0.35636 0-0.75595 0.39959-0.75595 0.75595 0 0.25198 0.57777 0.17818 0.75595 0 0.39842-0.39842 0.75595-0.94845 0.75595-1.5119 0-0.35637-0.75595 0.39959-0.75595 0.75595 0 0.50397 1.5119-0.50397 1.5119 0 0 0.25198-0.57777 0.17818-0.75595 0-0.17818-0.17818-0.17818-0.57778 0-0.75595 0.17818-0.17818 0.50397 0 0.75595 0h1.5119c0.25198 0-0.75595 0.25198-0.75595 0 0-0.25199 0.57777 0.17817 0.75595 0 0.17818-0.17818 0-0.50397 0-0.75596v-4.5357c0-0.25199-0.25198-0.75595 0-0.75595s0 1.0079 0 0.75595v-5.2917c0-0.40384-0.10818-3.5634 0-3.7798 0.15937-0.31874 0.75595-0.39959 0.75595-0.75595s-0.75595-0.39959-0.75595-0.75595c0-0.25199 0.64326 0.22538 0.75595 0 0.22538-0.45077 0-1.0079 0-1.5119v0.75595-1.5119c0-0.25198-0.17818 0.57777 0 0.75595 0.17818 0.17818 0.75595 0.25198 0.75595 0 0-0.35636-0.91532-0.43722-0.75595-0.75595 0.25198-0.50397 0.94845-0.75596 1.5119-0.75596 0.35636 0 0.75595 0.3996 0.75595 0.75596 0 0.25198-1.0079 0-0.75595 0h1.5119 1.5119c0.25198 0 0.75595 0.25198 0.75595 0 0-0.56345-1.2599-1.2599-0.75595-1.5119 0.71272-0.35636 1.5551 0.3996 2.2679 0.75595 0.22538 0.1127-0.75595 0.25199-0.75595 0 0-0.35635 0.43721-0.59658 0.75595-0.75595 0.22538-0.11269 0.50397 0 0.75595 0h1.5119c0.25198 0-0.57777 0.17818-0.75595 0-0.17818-0.17818-0.25198-0.75595 0-0.75595 0.56345 0 1.1135 0.35753 1.5119 0.75595 0.17818 0.17818-1.0079 0-0.75595 0h2.2679c0.25198 0-0.57777 0.17818-0.75595 0-0.17818-0.17818 0-0.50396 0-0.75595 0-0.25198-0.25199-0.75595 0-0.75595 5.1219 0 0.56172 1.1444 0.75595 0.75595 0.31874-0.63747 1.0079-1.0079 1.5119-1.5119 0.25199-0.25199-0.75595 0.39959-0.75595 0.75595 0 0.25198 0.57777 0.17818 0.75595 0 0.39842-0.39842 0.75595-0.94845 0.75595-1.5119 0-0.35636-0.3996 0.75596-0.75595 0.75596-0.25198 0-0.22538-0.64326 0-0.75596 0.45076-0.22538 1.1555 0.35636 1.5119 0 0.25198-0.25198-0.86864-0.41788-0.75595-0.75595 0.22538-0.67614 1.0079-1.0079 1.5119-1.5119 0.25198-0.25199-0.50397 1.0079-0.75595 0.75595-0.35636-0.35636-0.45076-1.2865 0-1.5119 0.50397-0.25198 1.1135 0.35753 1.5119 0.75596 0.17818 0.17818-0.57777 0.17818-0.75595 0-0.17818-0.17818-0.17818-0.57778 0-0.75596 0.45178-0.45178 1.5119 0.8171 1.5119-0.75595 0-0.25198-0.57777 0.17818-0.75595 0-0.17818-0.17818-0.17818-0.57777 0-0.75595 0.17818-0.17818 0.57777 0.17818 0.75595 0 0.17818-0.17818-0.25198-0.75595 0-0.75595s0 1.0079 0 0.75595v-1.5119c0-0.25198-0.25198-0.75595 0-0.75595s0.25198 0.75595 0 0.75595 0-0.50397 0-0.75595c0-0.25198-0.25198-0.75595 0-0.75595s0.25198 0.75595 0 0.75595-0.17818-0.57777 0-0.75595c0.17818-0.17818 0.75595 0.25198 0.75595 0 0-0.35636-0.39959-0.75595-0.75595-0.75595-0.25198 0 0.25198 0.75595 0 0.75595s0-0.50397 0-0.75595c0-0.25198-0.22538-0.64326 0-0.75595 0.45076-0.22538 1.1555 0.35636 1.5119 0 0.25199-0.25199-0.59658-0.43722-0.75595-0.75595-0.11269-0.22538-0.17818-0.57777 0-0.75595 0.17818-0.17818 0.53057 0.11269 0.75595 0 0.31874-0.15937 0.50397-1.0079 0.75595-0.75595 0.25198 0.25198-0.3996 0.75595-0.75595 0.75595-0.25198 0 0-0.50397 0-0.75595v-0.75595c0-0.25198-0.25198-0.75595 0-0.75595 0.35636 0 0.3996 0.75595 0.75595 0.75595 0.50397 0-0.50397-1.5119 0-1.5119 0.35636 0 0.75595 0.39959 0.75595 0.75595 0 1.0079-1.7639-0.75595-0.75595-0.75595 0.35636 0 0.64326 1.094 0.75595 0.75595 0.31874-0.95621 0-2.0159 0-3.0238z" fill="#f3cb27" fill-rule="evenodd" stroke="#e6bd20" stroke-width=".26458px"/>
  <g fill="#eec212" stroke="#e6bd20">
   <ellipse cx="71.815" cy="106.88" rx="3.0238" ry="3.4018" stroke-width="2.938"/>
   <ellipse cx="52.799" cy="146.19" rx="3.9624" ry="4.4577" stroke-width="3.85"/>
   <ellipse cx="134.56" cy="109.15" rx="3.0238" ry="3.4018" stroke-width="2.938"/>
   <ellipse cx="107.98" cy="141.02" rx="4.98" ry="5.6025" stroke-width="4.8386"/>
   <ellipse cx="155.35" cy="164.33" rx="5.9331" ry="5.9331" stroke-width="5.435"/>
   <ellipse cx="84.171" cy="199.99" rx="5.4164" ry="4.905" stroke-width="4.7217"/>
   <ellipse cx="130.02" cy="200.62" rx="3.0238" ry="3.4018" stroke-width="2.938"/>
  </g>
 </g>
</svg>
